<?xml version="1.0" standalone="no"?>
<!DOCTYPE svg PUBLIC "-//W3C//DTD SVG 20010904//EN"
 "http://www.w3.org/TR/2001/REC-SVG-20010904/DTD/svg10.dtd">
<svg version="1.0" xmlns="http://www.w3.org/2000/svg"
 width="2160.000000pt" height="2160.000000pt" viewBox="0 0 2160.000000 2160.000000"
 preserveAspectRatio="xMidYMid meet">
<metadata>
Created by potrace 1.16, written by Peter Selinger 2001-2019
</metadata>
<g transform="translate(0.000000,2160.000000) scale(0.100000,-0.100000)"
fill="#000000" stroke="none">
<path d="M13355 17740 c-10 -11 -16 -20 -14 -20 3 0 -19 -26 -48 -57 -29 -31
-53 -62 -53 -68 0 -7 -10 -20 -21 -31 -40 -35 -78 -95 -72 -111 4 -10 2 -14
-4 -10 -13 8 -26 -20 -16 -35 3 -6 1 -8 -4 -5 -13 8 -26 -20 -16 -35 3 -6 1
-8 -5 -4 -9 5 -84 -102 -88 -126 -1 -5 -3 -11 -4 -15 -1 -5 -2 -12 -1 -16 1
-5 -3 -6 -8 -2 -13 7 -43 -63 -34 -78 3 -5 2 -7 -4 -4 -6 4 -19 -4 -30 -16
-30 -33 -83 -138 -76 -150 3 -6 1 -7 -5 -3 -8 5 -12 -2 -12 -19 0 -15 4 -24
10 -20 6 4 8 11 4 16 -3 5 -2 9 3 8 21 -4 34 2 27 13 -4 7 -3 8 4 4 14 -9 52
29 52 52 0 10 7 28 16 40 8 12 12 28 8 35 -4 6 -4 9 1 5 13 -12 77 94 72 120
-3 16 1 22 14 22 21 0 51 38 42 53 -3 6 -1 7 6 3 7 -4 18 5 29 23 9 17 20 31
25 31 4 0 7 6 7 13 0 8 9 22 19 31 11 10 17 25 14 34 -4 10 -2 13 5 8 8 -5 12
2 12 21 0 22 2 25 10 13 8 -13 10 -13 10 -1 0 8 10 25 21 38 17 17 19 26 11
36 -9 10 -8 14 3 14 8 0 12 -4 9 -9 -3 -4 -3 -8 -1 -8 3 0 19 21 36 47 17 25
31 43 31 39 0 -5 9 2 19 15 14 18 16 26 8 32 -8 6 -6 7 5 3 11 -3 23 3 33 17
19 27 20 47 1 21 -13 -17 -14 -16 -6 19 7 32 5 37 -10 37 -9 0 -25 -9 -35 -20z"/>
<path d="M15012 17543 c-20 -8 -74 -92 -66 -105 4 -7 3 -8 -5 -4 -6 4 -14 0
-18 -10 -3 -9 -22 -32 -42 -50 -44 -39 -79 -127 -60 -150 18 -22 62 -17 98 13
30 25 78 108 73 126 -1 5 2 6 8 2 6 -3 8 -12 4 -18 -3 -7 4 -1 15 12 12 12 18
27 15 32 -3 5 -1 8 4 7 6 -2 10 2 10 7 0 6 -5 9 -11 7 -7 -2 -8 0 -4 5 5 4 14
8 20 8 5 0 12 6 15 14 3 9 0 11 -9 6 -8 -5 -11 -4 -6 1 5 5 14 9 20 9 7 0 12
10 11 22 0 12 3 20 7 18 4 -3 9 2 13 10 10 28 -52 54 -92 38z"/>
<path d="M19127 17269 c-9 -6 -14 -15 -11 -21 4 -6 3 -8 -3 -5 -5 4 -23 -7
-38 -23 -25 -26 -27 -34 -19 -58 8 -22 16 -27 44 -29 19 -1 47 5 62 13 34 17
60 65 40 72 -6 2 -12 8 -12 13 0 6 5 7 10 4 6 -3 10 3 10 13 0 30 -47 42 -83
21z"/>
<path d="M14512 16866 c-27 -14 -63 -66 -56 -78 3 -4 0 -8 -7 -8 -7 0 -29 -15
-48 -32 -18 -18 -30 -26 -26 -18 8 13 6 13 -8 1 -9 -7 -14 -18 -10 -24 3 -5 1
-7 -4 -4 -11 7 -44 -35 -47 -60 -1 -7 -5 -12 -8 -11 -9 5 -48 -34 -48 -47 0
-7 -25 -36 -56 -66 -30 -30 -67 -76 -81 -104 -24 -48 -20 -45 101 75 82 82
124 130 121 140 -4 8 -3 12 0 8 3 -3 17 4 30 16 17 15 21 24 13 34 -8 10 -7
11 7 6 12 -5 16 -4 11 4 -3 6 -1 14 5 18 8 4 9 3 5 -4 -4 -7 -2 -12 4 -12 19
0 50 20 50 32 0 6 -7 5 -17 -3 -16 -13 -17 -12 -4 3 7 10 17 16 21 13 5 -3 12
0 16 6 4 8 9 7 15 -2 5 -8 3 -17 -4 -21 -8 -5 -7 -8 4 -8 21 0 91 79 83 92 -4
7 -2 8 4 4 6 -3 16 3 22 14 23 43 -35 66 -88 36z"/>
<path d="M13340 16750 c-11 -11 -20 -17 -20 -13 0 9 -29 -30 -30 -40 0 -5 6
-5 13 -1 10 6 10 4 0 -7 -18 -18 -16 -39 2 -39 8 0 14 -3 14 -7 -3 -19 2 -33
12 -33 5 0 7 5 3 12 -5 7 -3 8 5 3 9 -5 10 -10 2 -18 -7 -7 -5 -20 6 -41 15
-28 17 -29 24 -11 12 32 10 38 -8 24 -16 -13 -17 -12 -4 3 15 20 31 15 31 -10
0 -17 14 1 42 58 6 14 17 32 24 40 6 8 14 31 16 52 4 35 2 36 -32 42 -59 10
-79 7 -100 -14z"/>
<path d="M15680 16729 c-111 -98 -122 -110 -110 -125 7 -7 17 -11 24 -7 7 4 6
1 -1 -9 -7 -8 -10 -17 -7 -20 3 -3 1 -9 -4 -12 -5 -3 -9 4 -8 17 1 13 -5 22
-14 22 -8 0 -15 -9 -15 -20 -1 -11 -6 -19 -12 -18 -16 3 -56 -64 -47 -78 4 -7
3 -9 -3 -6 -11 7 -31 -11 -31 -26 0 -5 -4 -12 -8 -15 -4 -4 -4 -1 0 6 13 22
-4 13 -29 -15 -13 -16 -24 -32 -25 -38 0 -5 4 -5 8 2 6 9 11 7 19 -6 11 -17 9
-19 -16 -15 -46 8 -82 -44 -58 -83 6 -9 3 -11 -8 -7 -9 4 -14 13 -10 22 4 12
3 13 -10 2 -18 -15 -21 -44 -2 -34 7 4 9 3 4 -2 -5 -5 -12 -9 -15 -9 -4 0 -14
-4 -22 -10 -13 -8 -13 -7 0 10 8 10 10 16 4 12 -22 -13 -66 -86 -58 -98 4 -7
3 -10 -3 -6 -6 4 -23 -10 -39 -31 -15 -20 -34 -41 -40 -47 -7 -5 -15 -21 -18
-35 -3 -14 -3 -19 0 -12 3 6 10 12 15 12 6 0 7 -6 4 -12 -4 -7 3 -3 14 10 11
13 21 22 23 21 2 -1 20 1 41 5 28 5 40 14 47 32 13 33 12 37 -1 28 -7 -4 -2 7
11 24 14 18 19 35 15 44 -5 7 -4 10 0 5 5 -4 20 3 33 15 14 13 22 18 19 12 -4
-7 -1 -14 7 -17 9 -4 15 3 18 21 8 47 13 57 31 71 10 7 16 19 13 27 -3 8 0 13
7 11 7 -1 12 8 11 20 0 13 1 21 4 19 5 -6 42 27 42 37 0 5 -8 3 -17 -4 -16
-11 -16 -11 -5 1 7 8 16 15 20 15 13 0 82 46 82 55 0 4 16 36 35 70 30 52 33
65 23 79 -11 14 -11 14 2 4 23 -17 100 53 100 91 0 14 -1 26 -2 26 -2 0 -19
-14 -38 -31z"/>
<path d="M6028 16623 c-10 -2 -18 -9 -18 -14 0 -6 -4 -8 -9 -4 -13 7 -62 -16
-55 -26 3 -5 -1 -6 -9 -3 -16 6 -50 -34 -41 -48 3 -4 -2 -8 -11 -8 -19 0 -12
-33 14 -65 14 -17 14 -18 0 -7 -9 6 -20 8 -24 4 -5 -4 -5 -1 -1 6 4 6 2 12 -3
12 -21 0 -10 -20 19 -35 17 -9 30 -18 30 -21 0 -3 -5 -2 -11 2 -8 5 -8 1 0
-14 13 -24 78 -64 108 -66 11 0 19 -4 17 -7 -8 -13 28 -19 49 -8 12 6 46 36
74 67 41 44 53 64 53 89 0 39 -9 65 -21 57 -5 -3 -6 2 -3 11 17 42 -91 96
-158 78z"/>
<path d="M15748 16426 c-10 -7 -18 -18 -18 -24 0 -6 -4 -14 -10 -17 -6 -3 -7
1 -4 9 11 28 -4 17 -26 -19 -12 -19 -18 -40 -14 -46 4 -7 3 -9 -3 -6 -11 7
-49 -61 -39 -70 2 -3 41 14 85 38 44 24 78 45 76 47 -2 3 6 13 18 22 l22 18
-29 31 c-34 35 -35 35 -58 17z"/>
<path d="M6513 15705 c-45 -12 -89 -28 -97 -35 -9 -7 -25 -10 -36 -7 -16 4
-21 -1 -26 -32 -3 -20 -11 -51 -17 -68 -9 -28 -8 -37 9 -60 26 -35 106 -81
112 -65 5 16 23 15 20 0 -5 -20 107 -33 140 -17 15 7 32 13 37 14 6 0 9 8 9
18 -2 21 0 21 20 1 9 -8 16 -11 16 -4 0 6 10 24 21 39 12 16 18 34 14 40 -3 7
-1 10 7 9 26 -6 20 42 -10 77 -17 18 -33 43 -36 53 -4 11 -14 23 -23 27 -14 5
-14 3 2 -15 15 -17 16 -23 5 -33 -10 -9 -11 -9 -6 0 9 17 -42 83 -63 82 -9 -1
-53 -11 -98 -24z"/>
<path d="M10936 15290 c-60 -83 -90 -157 -82 -200 3 -14 -2 -51 -10 -83 -18
-70 -10 -88 37 -78 26 5 37 18 72 86 37 69 42 87 40 136 -1 32 6 87 16 124 34
122 7 127 -73 15z"/>
<path d="M13327 15319 c-9 -6 -14 -15 -11 -21 4 -6 3 -8 -3 -5 -11 7 -137
-116 -128 -125 4 -3 1 -9 -6 -14 -8 -5 -10 -3 -4 7 8 12 6 12 -9 0 -9 -8 -15
-20 -12 -28 3 -7 -3 -19 -14 -25 -11 -7 -20 -18 -20 -25 0 -7 -4 -13 -10 -13
-5 0 -10 -4 -10 -10 0 -5 20 0 45 12 24 12 42 24 40 28 -2 3 11 4 30 2 27 -3
33 -1 32 15 -1 10 -8 22 -14 26 -7 4 -13 13 -13 20 0 8 3 7 9 -2 5 -8 16 -11
26 -8 9 4 13 12 10 17 -4 6 -1 9 7 8 7 -2 12 5 12 14 -1 10 3 16 9 15 6 -1 15
12 20 28 5 17 12 37 14 45 4 12 7 11 13 -5 6 -13 9 -15 9 -5 1 8 4 25 7 38 7
24 -1 27 -29 11z"/>
<path d="M10265 15290 c3 -5 0 -7 -8 -5 -7 3 -27 -9 -43 -27 -27 -29 -31 -44
-40 -126 -8 -86 -5 -121 10 -90 3 7 4 4 1 -8 -7 -26 14 -45 44 -39 12 2 19 0
16 -6 -4 -5 -11 -6 -17 -3 -7 4 -8 2 -4 -4 4 -6 25 -17 48 -24 38 -11 42 -10
60 12 10 13 16 30 14 37 -3 8 -2 12 3 9 13 -8 31 50 31 100 0 34 -4 44 -16 44
-14 0 -15 -2 -3 -17 12 -16 12 -17 -2 -6 -12 10 -14 24 -8 70 8 70 -7 93 -58
93 -20 0 -32 -4 -28 -10z"/>
<path d="M14633 15106 c3 -8 -6 -24 -20 -37 -16 -16 -24 -19 -21 -9 2 8 -3 14
-10 12 -8 -1 -11 2 -7 8 5 8 11 7 21 -1 8 -6 14 -10 15 -8 9 46 6 48 -43 20
-18 -11 -60 -30 -93 -42 -57 -21 -78 -36 -70 -49 2 -3 -8 -6 -23 -7 l-27 -2
24 10 c13 5 22 12 19 15 -7 6 -58 -17 -54 -25 2 -3 -9 -6 -25 -7 -16 -1 -44
-12 -64 -25 -37 -26 -47 -43 -17 -32 9 3 14 3 11 -1 -12 -13 -50 -16 -43 -3 5
9 3 9 -6 0 -23 -21 -23 -53 0 -53 13 0 18 5 14 15 -5 11 -2 13 10 9 9 -3 13
-11 9 -17 -4 -7 6 -8 29 -4 20 3 40 2 44 -3 16 -15 59 -16 56 -2 -1 8 2 11 8
7 6 -3 30 7 55 24 72 48 79 51 197 65 129 16 150 30 145 95 -3 43 -31 61 -96
61 -33 0 -42 -3 -38 -14z"/>
<path d="M7859 15062 c-13 -33 -5 -131 12 -146 9 -8 10 -8 5 1 -9 17 9 50 18
34 4 -6 2 -11 -4 -11 -7 0 -9 -7 -6 -17 4 -9 3 -19 -2 -22 -10 -7 8 -151 19
-151 4 0 11 -15 14 -32 4 -18 13 -40 21 -48 7 -8 17 -43 23 -78 9 -55 42 -120
62 -121 3 -1 0 41 -8 92 -8 50 -12 100 -9 110 2 9 -1 17 -6 17 -7 0 -8 19 -5
53 4 28 3 44 -1 35 -6 -14 -9 -15 -26 -2 -11 8 -15 14 -9 14 6 0 13 9 16 20 3
13 1 18 -6 14 -7 -3 -4 1 5 9 16 12 17 26 10 113 -6 89 -7 94 -13 49 l-6 -50
-1 48 c-1 30 -7 47 -14 47 -7 0 -24 10 -38 21 -14 11 -18 17 -10 13 8 -4 11
-3 7 1 -16 19 -39 12 -48 -13z"/>
<path d="M10546 15040 c-3 -22 -3 -52 0 -65 3 -14 2 -31 -4 -38 -5 -6 -13 -57
-16 -112 -4 -55 -12 -121 -17 -146 -8 -37 -7 -54 5 -80 l16 -34 -5 30 c-5 29
-5 29 8 7 13 -22 13 -21 17 15 2 21 3 75 2 121 -1 46 2 80 7 78 9 -6 24 64 16
73 -3 2 -5 -3 -5 -12 0 -9 -5 -17 -11 -17 -8 0 -10 17 -5 58 4 31 10 78 13
103 7 58 -12 74 -21 19z"/>
<path d="M11450 14978 c-8 -18 -15 -41 -16 -51 -1 -10 -7 -24 -14 -30 -10 -10
-10 -7 -1 11 6 12 9 22 7 22 -3 0 -15 -18 -26 -40 -24 -48 -55 -81 -66 -72 -4
4 -4 -2 1 -13 4 -11 10 -32 13 -47 2 -16 5 -28 7 -28 1 0 16 5 33 11 32 11 47
33 35 51 -3 6 -2 8 4 5 5 -3 19 6 30 21 18 25 20 37 14 110 l-6 83 -15 -33z"/>
<path d="M11015 14894 c-43 -16 -87 -52 -79 -65 3 -5 -1 -6 -9 -4 -7 3 -29 -1
-49 -9 -36 -15 -36 -16 -43 -92 -6 -60 -5 -78 6 -86 11 -8 10 -9 -3 -4 -10 3
-18 1 -18 -4 0 -6 -11 -20 -25 -32 -37 -32 -35 -100 6 -161 17 -26 35 -45 40
-41 5 3 6 -1 3 -9 -5 -15 18 -40 32 -35 11 4 14 -5 14 -37 0 -22 -4 -25 -37
-25 -43 -1 -56 -9 -96 -62 -20 -28 -37 -39 -65 -43 -20 -3 -65 -10 -99 -16
-54 -10 -66 -9 -108 10 -71 31 -110 28 -151 -13 -19 -19 -34 -42 -34 -53 0
-31 -29 -63 -58 -64 -21 -1 -22 -2 -7 -6 28 -7 65 -43 65 -64 0 -10 -18 -24
-49 -38 -66 -28 -98 -27 -106 2 -4 12 -21 40 -38 61 -22 28 -27 41 -18 44 8 3
21 12 31 22 14 14 21 15 32 7 7 -7 6 -4 -3 6 -13 15 -20 16 -41 6 -19 -8 -31
-8 -46 0 -25 13 -35 14 -28 3 8 -13 -88 -44 -109 -36 -13 5 -16 4 -11 -4 4 -7
1 -12 -8 -12 -9 0 -16 -6 -16 -14 0 -8 -27 -43 -59 -79 -33 -37 -62 -79 -66
-97 -4 -20 -15 -34 -30 -40 -13 -5 -26 -14 -30 -20 -5 -7 -14 3 -25 27 -10 23
-34 50 -61 68 -24 17 -45 33 -47 38 -6 12 -32 8 -62 -9 -34 -20 -57 -13 -70
21 -10 27 -108 128 -141 145 -26 14 -95 -8 -130 -42 -15 -16 -33 -28 -40 -28
-8 0 -3 -7 9 -16 12 -8 22 -24 22 -34 0 -30 39 -60 77 -60 39 0 92 -20 110
-41 6 -8 15 -54 19 -102 6 -75 5 -87 -9 -87 -9 0 -25 14 -37 30 -29 40 -53 38
-124 -10 -62 -42 -72 -42 -78 0 -2 20 -9 26 -35 28 -27 3 -33 -1 -38 -20 -2
-13 -4 -31 -2 -42 1 -10 -9 -27 -23 -37 -22 -17 -29 -18 -58 -7 -29 11 -37 10
-70 -9 -97 -57 -100 -58 -119 -39 -10 10 -40 31 -68 47 -27 16 -61 37 -75 46
-19 14 -22 14 -13 2 10 -13 5 -15 -40 -16 -29 -1 -68 -8 -87 -16 -19 -8 -65
-18 -102 -22 -62 -6 -68 -9 -68 -29 0 -44 -42 -146 -66 -164 -72 -50 -68 -37
-49 -142 15 -80 22 -100 48 -127 29 -31 56 -45 42 -23 -8 13 28 13 42 -1 13
-13 27 33 18 59 -6 20 14 35 90 63 48 18 57 26 74 64 19 43 52 71 75 62 7 -3
23 1 37 9 13 7 34 13 46 14 24 0 93 -29 93 -40 0 -3 -16 -21 -35 -40 -19 -18
-31 -38 -28 -44 3 -6 3 -8 -2 -4 -12 11 -35 -11 -35 -33 0 -11 -10 -23 -25
-29 -23 -9 -52 -48 -85 -115 -10 -20 -27 -33 -50 -40 -49 -15 -95 -62 -116
-122 -16 -44 -23 -53 -44 -54 -47 -2 -75 3 -96 16 -18 11 -22 11 -32 -6 -7
-10 -26 -26 -44 -35 -18 -9 -54 -34 -80 -55 -26 -22 -49 -39 -53 -39 -21 0
-99 67 -111 95 -17 40 -49 65 -85 65 -15 0 -37 9 -50 20 -23 19 -23 20 -5 35
15 11 17 22 12 56 -11 67 -41 115 -91 145 -49 29 -65 49 -65 87 0 16 -12 34
-34 51 -19 14 -36 22 -38 17 -2 -5 -25 -2 -53 5 -60 16 -124 18 -158 5 -16 -6
-39 -6 -62 0 -34 10 -42 7 -91 -23 -69 -43 -171 -134 -189 -167 -19 -37 -47
-168 -45 -213 1 -49 -15 -78 -44 -78 -48 0 -86 -13 -111 -37 -21 -22 -24 -31
-18 -72 3 -25 14 -55 23 -66 10 -11 30 -46 44 -79 20 -44 30 -57 42 -52 8 3
18 6 20 6 2 0 4 11 4 25 0 14 7 42 17 63 13 30 17 33 21 17 6 -29 22 -45 44
-45 27 0 141 -82 175 -126 22 -27 33 -33 53 -29 14 2 33 -2 44 -10 16 -12 17
-17 6 -30 -12 -15 -14 -15 -22 -1 -5 9 -15 16 -23 16 -13 0 -13 -5 0 -37 8
-21 16 -58 18 -83 2 -25 10 -64 17 -87 11 -35 11 -51 1 -84 -9 -30 -10 -44 -2
-49 8 -4 7 -15 -4 -36 -22 -45 -10 -101 26 -119 15 -8 36 -28 45 -44 21 -35
61 -56 78 -41 9 7 13 5 13 -5 0 -8 -5 -12 -11 -9 -6 3 -2 -2 9 -11 16 -14 34
-16 96 -11 87 7 135 -5 135 -33 0 -11 -3 -18 -7 -15 -4 2 -9 -3 -13 -11 -3 -8
-12 -15 -20 -15 -13 0 -13 -5 0 -37 33 -81 92 -96 155 -38 22 19 43 35 49 35
5 0 13 15 19 33 5 17 30 86 55 152 116 300 255 547 439 778 131 165 151 184
209 197 148 36 315 -31 486 -194 l78 -75 23 72 c93 291 254 707 313 809 25 42
35 49 110 78 106 40 298 95 424 121 88 18 392 41 549 41 184 0 459 -22 570
-46 66 -14 124 -26 129 -26 29 0 -53 -238 -159 -455 -205 -422 -588 -966
-1088 -1548 -65 -77 -116 -141 -114 -144 7 -7 297 23 512 53 744 104 1375 284
1730 494 321 190 476 370 531 617 15 64 22 81 36 80 9 -1 15 -4 12 -8 -7 -11
37 -60 48 -53 7 4 8 2 4 -4 -8 -14 42 -84 54 -77 5 3 12 0 16 -6 5 -8 3 -9 -6
-4 -8 5 -11 3 -8 -6 3 -8 10 -13 15 -12 5 1 10 -4 10 -10 0 -18 93 -155 110
-161 8 -3 12 -10 9 -15 -8 -12 89 -182 99 -173 5 4 5 2 2 -4 -6 -11 97 -247
104 -239 2 2 5 -6 5 -18 1 -12 18 -69 38 -127 71 -203 116 -416 137 -647 l12
-132 -47 -93 c-204 -399 -649 -724 -1318 -962 -477 -169 -846 -238 -1283 -239
-424 -1 -794 69 -1165 220 -212 87 -517 262 -651 374 -27 23 -52 39 -55 36 -8
-7 41 -190 81 -305 86 -246 209 -476 368 -687 77 -100 258 -288 357 -368 291
-235 644 -386 1035 -443 146 -21 457 -24 595 -5 479 65 948 264 1386 588 158
117 153 114 119 68 -17 -22 -38 -51 -47 -65 -8 -14 -43 -55 -77 -92 -56 -60
-81 -97 -48 -69 10 8 14 7 14 -3 0 -8 -7 -13 -16 -11 -9 1 -61 -40 -117 -92
-55 -52 -111 -101 -123 -109 -17 -12 -19 -19 -11 -29 8 -10 8 -15 -1 -21 -7
-4 -9 -3 -5 4 3 6 3 13 -1 15 -12 7 -173 -119 -165 -128 4 -5 2 -5 -4 -2 -6 3
-29 -6 -51 -21 -40 -27 -41 -28 -23 -49 10 -12 20 -20 23 -17 3 3 3 -4 0 -15
-9 -34 16 -107 40 -120 13 -7 15 -10 5 -7 -22 6 -22 -4 -3 -50 10 -24 19 -33
27 -28 7 4 10 4 7 0 -4 -4 6 -32 21 -62 l28 -54 -34 -15 c-43 -18 -94 -95 -94
-143 0 -38 17 -75 30 -67 5 3 11 1 15 -5 3 -5 1 -10 -4 -10 -17 0 -13 -27 7
-46 9 -10 16 -20 15 -23 -2 -3 2 -6 7 -5 6 1 17 2 26 3 9 0 12 6 8 14 -5 9 -4
9 5 1 20 -18 89 2 148 43 50 35 56 36 175 44 69 4 124 4 126 -1 2 -5 10 -6 19
-3 11 4 14 2 9 -5 -5 -8 2 -12 19 -12 17 0 24 4 19 12 -5 8 -2 9 9 5 11 -4 17
-1 17 7 0 8 8 23 18 35 15 18 22 19 67 10 28 -5 58 -14 68 -19 14 -9 17 -6 17
15 0 14 -4 25 -10 25 -5 0 -7 -8 -3 -17 5 -15 3 -16 -7 -6 -12 11 -10 16 8 33
12 12 27 18 32 15 20 -12 68 6 105 41 36 32 39 33 56 18 17 -16 19 -16 25 1 6
14 15 16 49 10 61 -9 148 4 141 21 -3 7 0 16 6 20 7 4 8 3 4 -4 -4 -7 -4 -12
1 -12 4 1 21 21 36 45 30 47 33 95 8 103 -10 3 -11 0 -5 -9 5 -9 -1 -8 -19 4
-15 10 -27 13 -27 7 0 -7 -7 -4 -16 5 -10 9 -25 15 -34 12 -9 -2 -17 1 -18 7
-9 93 -9 103 4 103 7 0 11 -3 9 -7 -9 -14 94 -3 119 13 33 22 33 40 1 61 -22
15 -25 23 -23 61 2 24 8 43 13 42 6 -1 9 6 9 15 -1 10 2 16 6 13 5 -3 20 9 35
27 23 29 28 31 37 17 13 -20 57 -11 114 23 27 16 45 19 82 15 77 -9 87 -13 84
-31 -2 -9 2 -16 8 -16 6 0 8 -4 5 -10 -9 -15 23 -68 46 -75 31 -10 89 3 89 20
0 8 5 15 11 15 5 0 7 -5 3 -11 -4 -8 0 -8 15 0 11 7 21 13 21 14 0 13 -42 87
-48 83 -11 -7 -6 58 6 80 11 19 11 19 13 -1 0 -13 4 -8 10 13 5 18 14 30 19
27 12 -8 13 15 1 34 -5 7 -14 10 -20 7 -6 -4 -10 -2 -9 4 4 16 -86 48 -137 49
-39 1 -74 -16 -108 -50 -9 -9 -14 -19 -11 -22 3 -3 -4 -3 -16 0 -13 3 -25 15
-28 25 -2 11 -10 17 -18 14 -7 -3 -16 -1 -19 4 -4 6 -31 10 -61 10 -45 0 -54
-3 -54 -17 0 -14 -2 -15 -9 -4 -15 24 -70 -37 -91 -103 -11 -32 -17 -62 -14
-67 3 -5 0 -8 -8 -7 -7 2 -13 -5 -13 -14 0 -26 -17 -39 -35 -27 -13 9 -12 10
2 5 10 -3 20 -1 23 4 4 6 -15 10 -44 10 l-50 0 -12 58 c-8 39 -9 71 -2 104 5
26 6 45 1 42 -4 -3 -5 2 -2 10 3 9 11 13 17 9 6 -4 8 0 4 11 -4 9 -3 15 2 12
12 -8 43 29 34 39 -5 4 -2 5 5 1 6 -4 12 -2 12 4 0 6 4 9 9 5 12 -7 33 29 23
40 -4 5 -2 5 4 2 17 -10 52 34 68 86 8 26 12 47 9 47 -2 0 17 18 42 40 50 43
56 47 52 28 -1 -10 20 -13 76 -15 88 -2 150 17 141 42 -4 10 0 15 10 15 27 0
75 41 68 58 -3 10 -1 13 6 8 11 -7 17 6 13 27 -1 5 3 6 8 3 5 -3 14 1 21 9 10
12 9 16 -4 21 -17 7 -22 34 -6 34 6 0 10 -4 10 -10 0 -5 5 -10 11 -10 6 0 18
-9 28 -21 11 -14 33 -23 64 -26 26 -3 52 -12 58 -19 13 -16 53 -19 44 -4 -4 6
11 26 32 45 21 18 39 38 39 44 1 6 2 17 3 24 1 9 3 9 10 -1 11 -19 64 8 88 44
16 24 15 28 -1 58 -26 48 -18 78 27 98 26 12 37 23 37 39 0 17 3 19 13 10 8
-6 17 -8 20 -4 4 3 7 2 7 -4 0 -5 19 -18 43 -28 23 -10 52 -27 64 -38 12 -10
26 -16 33 -12 6 4 9 1 8 -7 -2 -7 3 -12 10 -11 6 2 12 -2 12 -7 0 -16 57 -11
75 6 9 9 15 26 14 38 -4 36 10 63 40 76 56 23 111 104 111 164 0 18 -8 27 -31
35 -53 18 -137 12 -123 -10 3 -5 -1 -6 -9 -3 -9 3 -27 -10 -46 -33 -32 -39
-40 -60 -18 -47 7 4 9 3 4 -2 -5 -5 -14 -9 -20 -9 -7 -1 -11 -6 -10 -12 2 -8
-12 -11 -42 -8 -29 2 -43 0 -39 -7 4 -5 -4 -4 -17 2 -34 18 -38 24 -11 16 12
-4 22 -5 22 -2 0 12 -61 36 -89 36 -24 0 -32 5 -37 25 -3 14 -13 25 -23 25
-12 0 -13 2 -3 8 9 7 8 21 -8 67 -11 32 -20 59 -20 60 0 2 11 6 25 9 14 4 25
11 25 17 0 6 -4 8 -9 4 -5 -3 -12 -1 -15 4 -4 5 2 8 11 7 10 -2 29 8 42 21 13
13 35 26 48 29 24 6 33 5 137 -16 74 -14 184 -1 171 20 -3 5 21 -2 54 -15 33
-12 62 -20 65 -17 3 3 6 0 6 -6 0 -15 52 -42 80 -42 31 0 75 26 133 78 29 26
67 54 85 61 22 9 32 20 32 35 0 22 13 48 24 47 3 -1 5 2 4 6 -2 5 -7 7 -13 5
-7 -2 -7 0 0 6 6 6 41 13 80 16 38 4 74 11 80 18 7 8 5 9 -7 5 -12 -4 -15 -2
-11 9 6 16 -15 46 -27 39 -5 -3 -4 9 1 27 5 18 14 62 19 98 17 107 21 122 34
117 19 -8 38 46 27 75 -8 22 -7 24 12 21 17 -3 25 3 34 28 9 22 17 30 28 26 9
-4 15 -1 15 8 0 7 -9 17 -21 20 -13 4 -18 12 -15 22 4 10 2 13 -8 10 -10 -4
-13 -1 -9 9 3 7 0 14 -6 14 -5 0 -15 10 -21 23 -10 20 -10 20 3 5 8 -10 19
-18 26 -18 6 0 11 -5 11 -11 0 -5 4 -8 9 -5 5 3 -3 19 -17 35 -21 22 -30 26
-44 18 -11 -8 -30 -7 -65 2 -26 6 -53 12 -60 13 -7 1 -15 8 -18 16 -3 8 -12
12 -21 8 -13 -5 -14 -3 -6 6 8 10 6 20 -8 38 -11 14 -20 33 -20 42 0 9 -5 18
-10 20 -17 5 26 82 63 114 18 16 26 25 17 19 -13 -9 -13 -8 -2 7 8 9 19 15 26
12 7 -3 21 7 31 22 11 18 13 24 4 19 -8 -3 -6 0 3 7 12 10 18 33 20 75 2 34 6
59 9 57 4 -2 12 10 19 26 7 17 24 39 37 50 l25 19 -20 29 c-29 40 -88 70 -104
54 -11 -11 -10 -12 5 -7 9 4 17 3 17 -2 0 -5 -12 -10 -26 -11 -30 -2 -77 -36
-66 -47 4 -5 1 -5 -5 -1 -7 4 -30 2 -52 -5 -34 -10 -44 -9 -66 5 -14 9 -31 14
-37 10 -6 -4 -8 -3 -4 4 10 17 -13 25 -32 10 -15 -11 -15 -11 -5 2 10 13 8 22
-7 45 -11 17 -20 38 -20 48 0 9 -5 17 -12 17 -6 0 -4 6 7 13 11 9 15 19 10 27
-5 9 -4 11 4 6 8 -6 10 -1 6 17 -4 15 0 37 9 55 8 16 12 33 8 37 -4 3 -2 5 4
3 12 -3 108 132 99 140 -2 3 -7 -3 -11 -12 -3 -9 -11 -16 -17 -16 -5 0 -2 9 8
20 10 11 21 17 25 15 9 -6 42 29 35 38 -3 4 -2 5 1 2 4 -2 18 2 33 9 69 36 97
114 54 149 -26 21 -60 15 -81 -14 -15 -21 -43 -24 -74 -8 -19 10 -20 17 -14
95 l7 84 -50 -2 c-28 -1 -47 -6 -44 -12 3 -5 1 -6 -5 -2 -6 4 -9 13 -6 20 8
20 -67 3 -78 -18 -11 -20 -28 -21 -28 -1 0 9 -9 15 -25 15 -27 0 -31 10 -15
40 8 16 4 18 -46 25 -57 7 -84 -3 -84 -31 0 -8 -6 -14 -14 -14 -7 0 -21 -10
-30 -22 -9 -13 -14 -17 -11 -10 3 6 2 12 -4 12 -5 0 -17 3 -25 6 -12 5 -15 2
-11 -12 4 -13 2 -12 -6 3 -14 26 -58 46 -91 41 -20 -3 -23 -8 -22 -43 1 -22 5
-53 9 -69 7 -26 4 -34 -26 -58 -21 -18 -26 -26 -14 -22 25 9 18 1 -14 -16 -19
-10 -22 -10 -15 2 6 11 5 11 -8 0 -16 -13 -109 -13 -101 1 2 4 0 7 -6 7 -6 0
-27 15 -48 33 -21 17 -32 24 -24 14 8 -9 12 -19 10 -21 -2 -2 -13 8 -23 22
-11 14 -14 22 -8 18 16 -10 15 5 -3 31 -14 20 -17 83 -4 83 4 0 12 14 19 30 7
17 19 30 26 30 8 0 14 5 14 10 0 13 15 32 60 76 19 18 35 39 35 46 0 6 7 13
15 15 13 4 13 3 0 -6 -8 -6 -11 -11 -6 -11 15 0 86 62 80 71 -3 5 2 19 10 31
9 12 16 18 16 12 0 -5 -3 -14 -7 -20 -5 -5 0 -1 9 9 10 11 15 23 12 28 -3 5 2
9 11 9 8 0 18 7 21 15 4 8 13 15 21 15 8 0 12 4 9 9 -3 4 10 26 29 48 19 22
32 43 29 46 -3 3 2 4 13 1 10 -2 24 0 31 4 18 12 4 42 -20 42 -17 0 -19 4 -12
32 6 29 5 31 -9 20 -9 -8 -13 -21 -10 -29 4 -10 2 -14 -4 -10 -14 9 -47 -29
-37 -44 4 -7 3 -10 -3 -6 -5 3 -31 -16 -58 -43 -27 -27 -62 -52 -78 -56 -23
-5 -26 -8 -16 -16 10 -7 8 -8 -7 -3 -12 3 -28 0 -35 -7 -18 -16 -49 -19 -46
-4 1 6 -7 11 -17 11 -26 0 -29 32 -5 49 13 9 23 33 29 71 5 32 16 65 24 74 9
10 13 27 10 41 -3 19 -3 21 4 7 7 -17 9 -18 21 -3 10 12 11 23 4 39 -6 13 -6
34 -1 52 4 17 6 36 3 44 -3 8 0 11 9 8 8 -3 18 5 25 20 11 24 11 25 -4 13 -13
-11 -16 -11 -13 0 2 9 -8 15 -25 16 -16 2 -39 10 -52 18 -12 8 -32 12 -44 9
-20 -5 -21 -6 -4 -20 17 -13 17 -14 -1 -5 -10 5 -26 8 -35 7 -9 -1 -10 0 -3 2
7 3 12 21 12 44 0 37 -2 39 -20 29 -22 -12 -28 -25 -7 -17 8 3 13 -4 14 -22 0
-15 -1 -19 -4 -8 -3 10 -11 16 -18 13 -8 -2 -19 3 -27 12 -9 11 -10 14 0 8 22
-13 13 22 -14 51 -15 15 -20 19 -13 8 13 -18 13 -19 -3 -7 -9 8 -21 11 -26 8
-5 -3 -9 1 -9 9 0 8 4 12 9 9 4 -3 8 -1 8 5 0 12 -37 24 -72 23 -35 -1 -35 3
2 35 17 13 28 28 25 33 -7 11 -55 19 -60 10 -9 -14 -46 2 -43 19 3 24 -12 62
-23 56 -5 -3 -6 2 -2 11 5 13 3 15 -7 9 -9 -5 -11 -4 -6 4 9 14 -12 76 -41
120 -13 19 -23 38 -23 43 0 5 -4 6 -10 3 -5 -3 -10 -1 -10 4 0 6 5 11 10 11 6
0 10 5 10 11 0 5 -5 7 -11 3 -7 -4 -6 3 2 17 7 13 13 27 14 31 0 3 4 10 9 15
6 5 6 2 1 -7 -5 -9 0 -8 14 4 12 11 19 26 17 33 -3 7 -2 12 2 10 4 -1 8 2 9 7
0 5 8 13 17 18 19 11 21 60 4 91 -6 12 -25 37 -43 55 -31 32 -31 32 -53 14
-12 -11 -19 -22 -16 -25 3 -3 -10 -3 -28 -1 -91 10 -92 10 -105 -16 -7 -14
-13 -21 -13 -16 0 5 -11 -1 -25 -14 -14 -13 -25 -33 -25 -45 0 -27 28 -67 42
-59 7 4 8 2 4 -4 -8 -14 10 -52 26 -52 6 0 3 10 -8 23 l-19 22 22 -19 c12 -10
21 -23 20 -30 -1 -6 4 -10 11 -8 8 1 11 -2 7 -8 -3 -5 -1 -10 4 -10 6 0 11 -8
11 -19 0 -10 6 -24 14 -30 12 -10 11 -21 -9 -71 -13 -32 -20 -61 -17 -64 3 -3
0 -6 -6 -6 -13 0 -46 -59 -38 -68 3 -3 -4 -10 -15 -16 -12 -6 -33 -31 -47 -55
-15 -26 -20 -41 -12 -36 8 5 -6 -16 -30 -45 -44 -54 -62 -70 -77 -71 -5 -1
-16 -5 -26 -10 -12 -7 -17 -6 -15 3 2 7 -6 14 -17 16 -26 4 -60 -21 -51 -37 6
-9 11 -9 22 0 12 10 17 9 27 -1 9 -10 9 -11 -1 -6 -7 4 -19 3 -27 -4 -9 -7
-15 -8 -20 0 -9 15 -19 13 -46 -11 -22 -19 -24 -19 -27 -4 -2 10 -18 33 -35
52 -17 19 -37 49 -45 66 -7 18 -23 42 -34 54 -12 13 -18 26 -15 30 4 3 7 0 7
-8 0 -11 2 -11 10 1 5 8 10 30 10 49 0 30 -2 33 -22 27 -62 -18 -88 -19 -88
-2 0 9 -16 34 -36 55 -29 33 -41 39 -65 36 -16 -2 -27 0 -24 5 3 5 13 6 22 3
13 -5 13 -2 -2 21 -16 24 -17 33 -6 74 7 26 13 57 14 69 1 11 5 19 9 17 10 -7
28 65 28 114 0 50 11 73 55 119 49 51 87 109 89 137 0 13 4 22 7 20 7 -4 23
26 21 39 -1 4 2 7 7 7 5 0 12 8 15 18 4 9 -10 -1 -31 -23 -21 -22 -36 -44 -35
-48 1 -5 -2 -6 -8 -2 -10 6 -114 -91 -142 -132 -14 -22 -17 -23 -97 -12 -60 8
-94 8 -126 0 -54 -13 -122 -14 -130 -2 -3 6 -14 8 -24 6 -10 -2 -24 1 -32 6
-10 7 -6 8 14 5 19 -3 27 -1 24 7 -2 7 -14 11 -26 9 -14 -2 -24 4 -29 19 l-9
22 -15 -22 c-11 -16 -17 -19 -21 -9 -4 9 -6 7 -6 -4 -1 -22 -31 -24 -31 -3 0
38 -75 106 -95 87 -5 -4 -6 -2 -2 3 3 6 -2 19 -10 30 -15 19 -15 19 -11 -7 4
-18 1 -28 -7 -28 -7 0 -15 16 -18 36 -4 20 -14 56 -24 80 -17 42 -19 43 -73
49 -30 3 -77 15 -105 27 -27 11 -64 23 -82 25 -28 4 -35 0 -61 -36 -30 -42
-57 -146 -45 -177 3 -8 26 -27 52 -41 25 -15 60 -39 78 -54 17 -15 37 -29 44
-31 11 -4 10 -10 -4 -32 -10 -14 -15 -32 -11 -38 4 -6 3 -8 -3 -5 -6 4 -17 -1
-25 -11 -20 -23 -59 -118 -56 -134 2 -8 -5 -12 -16 -10 -12 2 -16 -1 -10 -9 4
-7 3 -10 -2 -6 -6 3 -9 34 -7 69 1 37 -4 83 -13 111 -9 27 -14 57 -11 68 7 25
4 24 -43 -7 -32 -21 -43 -24 -54 -15 -12 10 -21 9 -43 -4 -17 -11 -21 -11 -11
-3 10 8 14 19 10 23 -4 5 0 5 8 0 8 -4 -1 8 -19 28 -38 41 -55 50 -25 15 16
-20 15 -19 -10 2 -25 23 -27 30 -23 72 5 35 2 48 -9 52 -23 9 -16 32 21 67 18
18 32 36 29 41 -3 5 0 7 8 6 7 -2 12 5 12 14 -1 10 2 15 7 13 11 -7 31 67 21
77 -10 10 -119 41 -149 42 -11 1 -20 4 -18 7 2 3 -19 14 -46 23 -28 10 -57 28
-64 40 -13 20 -13 29 5 78 25 73 37 144 22 134 -6 -4 -9 -13 -5 -21 3 -8 -1
-15 -8 -15 -7 0 -9 3 -6 7 4 3 1 13 -6 21 -9 13 -9 14 1 8 6 -4 12 -3 12 2 0
5 -9 12 -20 15 -16 4 -19 13 -17 58 2 42 -1 54 -14 57 -10 2 -21 -8 -28 -25
-15 -37 -31 -160 -24 -181 8 -23 44 -62 52 -57 13 7 12 -124 0 -147 -7 -13
-12 -30 -11 -38 1 -9 -1 -10 -4 -3 -4 9 -16 7 -47 -6 -40 -17 -43 -17 -74 2
-40 23 -87 16 -109 -19 -13 -19 -25 -24 -57 -24 -23 0 -48 7 -58 16 -18 16
-44 11 -34 -7 3 -5 0 -6 -8 -3 -8 3 -33 -16 -61 -46 -45 -48 -49 -50 -62 -33
-7 10 -14 21 -14 25 0 4 -14 15 -31 24 l-31 16 31 32 c17 18 28 36 24 41 -5 4
-3 5 3 2 12 -7 98 52 89 61 -3 4 -11 0 -16 -8 -9 -13 -10 -13 -6 0 2 8 13 15
25 15 12 0 36 15 54 32 18 17 42 33 53 35 18 3 20 11 19 73 -1 92 -31 158 -84
185 -21 11 -40 17 -42 14 -3 -2 -3 7 -1 21 3 14 10 25 15 25 5 0 8 10 6 23 -2
12 -9 21 -16 19 -8 -1 -11 2 -8 7 5 8 -40 45 -56 46 -3 0 -10 4 -15 9 -4 5 -3
6 3 3 7 -4 14 3 16 18 6 29 -1 30 -57 9z m3711 -2679 c10 -8 14 -15 7 -15 -7
0 -17 -17 -22 -37 -13 -47 -14 -56 -2 -49 5 4 7 -2 4 -12 -5 -21 32 -72 53
-72 9 0 14 -11 14 -34 l0 -34 -42 13 c-24 7 -61 21 -83 30 -22 10 -51 17 -65
16 -17 -1 -28 5 -35 21 -6 13 -15 22 -21 21 -5 -1 -10 13 -9 30 0 27 6 35 38
50 23 11 35 22 31 29 -4 6 -3 8 3 5 6 -4 27 3 49 13 21 11 45 20 54 20 13 0
13 1 0 10 -8 5 -10 10 -4 10 5 0 19 -7 30 -15z"/>
<path d="M17950 14846 c0 -8 -4 -18 -10 -21 -5 -3 -7 0 -4 9 4 10 -17 3 -63
-20 -37 -19 -67 -39 -65 -45 1 -6 -1 -8 -6 -5 -15 9 -51 -24 -73 -65 l-20 -40
38 3 c32 3 38 6 37 25 -1 13 3 20 7 17 5 -3 7 -10 4 -15 -9 -14 8 -10 30 8 16
12 16 14 3 10 -10 -3 -20 -2 -22 2 -3 5 7 8 22 8 15 -1 37 4 49 11 24 13 76
80 52 68 -9 -5 -9 -3 2 6 22 18 42 58 29 58 -5 0 -10 -6 -10 -14z"/>
<path d="M13399 14833 c-1 -4 -1 -12 0 -16 1 -5 -3 -6 -8 -3 -11 7 -131 -104
-131 -121 0 -13 82 -28 106 -19 8 3 12 11 9 16 -4 6 -1 9 7 8 7 -2 12 5 12 14
-1 10 3 16 8 15 5 -1 24 15 41 36 25 30 29 41 21 55 -11 18 -63 30 -65 15z"/>
<path d="M13875 14814 c-9 -15 -18 -33 -19 -40 -1 -7 -6 -17 -11 -21 -4 -4 -5
-2 -1 5 4 6 3 12 -3 12 -19 0 -35 -202 -16 -208 20 -6 25 -43 10 -71 -8 -16
-11 -32 -7 -36 4 -3 2 -5 -5 -3 -9 2 -103 -105 -103 -118 0 -3 11 3 25 12 14
9 25 22 25 28 0 7 9 12 20 11 13 -1 52 30 108 84 90 88 101 104 127 180 l15
45 -31 32 c-36 37 -95 64 -85 39 3 -8 0 -14 -7 -12 -7 1 -11 -4 -9 -11 1 -8
-2 -11 -8 -7 -8 5 -7 11 1 21 7 9 8 14 1 14 -6 0 -14 -9 -17 -20 -3 -11 -11
-20 -16 -20 -13 0 -3 34 22 78 22 38 9 43 -16 6z"/>
<path d="M12938 14794 c-34 -18 -68 -81 -64 -117 2 -15 -1 -24 -5 -21 -24 14
-5 -28 22 -50 30 -25 99 -37 99 -17 0 5 9 11 20 14 11 3 22 17 26 33 4 16 15
39 26 50 19 21 19 23 3 55 -36 71 -69 85 -127 53z"/>
<path d="M12002 14767 c-12 -7 -19 -17 -15 -22 4 -4 1 -6 -8 -3 -9 4 -22 2
-30 -3 -12 -7 -12 -9 0 -9 8 0 12 -2 10 -5 -5 -4 -80 20 -110 35 -12 7 -21 5
-30 -7 -8 -9 -9 -14 -2 -10 13 8 12 -18 -2 -30 -4 -4 -5 -2 -1 5 10 16 0 15
-29 -4 -14 -9 -22 -20 -19 -25 3 -5 2 -9 -3 -8 -22 4 -32 -2 -27 -16 4 -8 9
-13 13 -10 4 2 7 -6 7 -18 -1 -16 4 -21 19 -19 17 2 17 1 5 -8 -13 -9 -12 -12
5 -26 16 -13 34 -14 85 -9 36 4 70 6 75 6 61 -6 93 -10 101 -13 19 -6 71 24
87 51 21 35 21 41 3 41 -10 0 -12 7 -8 22 5 21 6 21 13 2 4 -10 8 -13 8 -6 1
7 -6 28 -14 47 -21 51 -82 70 -133 42z"/>
<path d="M10096 14638 c-3 -13 -6 -34 -6 -47 0 -19 4 -22 21 -18 20 5 20 5 4
-13 -10 -11 -15 -28 -12 -40 3 -11 1 -18 -4 -14 -5 3 -9 -1 -9 -9 0 -37 -111
-102 -126 -74 -4 7 -4 9 0 5 4 -3 17 3 28 14 16 16 17 22 8 32 -10 8 -11 8 -6
-1 8 -15 -51 -36 -60 -21 -5 7 -2 8 7 4 8 -4 5 0 -5 8 -25 20 -88 21 -125 2
-15 -8 -38 -31 -52 -50 -13 -20 -30 -34 -36 -31 -13 4 -19 -35 -15 -95 1 -17
-1 -21 -7 -12 -6 10 -10 8 -14 -10 -15 -55 6 -104 56 -129 19 -9 19 -7 -3 11
-24 20 -24 21 -2 10 13 -6 25 -17 28 -25 8 -21 74 -28 119 -12 22 7 39 18 38
23 -1 5 7 11 18 11 11 1 19 -5 19 -14 0 -13 3 -13 15 -3 11 9 14 22 10 42 -6
24 -3 28 14 28 14 0 21 -6 21 -20 0 -38 16 -20 34 37 17 52 34 137 39 188 2
17 8 19 40 16 50 -4 139 39 156 76 21 45 -1 80 -61 98 -28 8 -55 12 -61 8 -5
-3 -7 -1 -4 4 7 10 -33 43 -51 43 -6 0 -12 -10 -16 -22z"/>
<path d="M16104 14534 c5 -14 4 -15 -8 -5 -14 12 -46 5 -46 -11 0 -5 6 -6 13
-2 8 5 8 2 -2 -9 -15 -19 -26 -23 -16 -7 7 12 -37 4 -67 -11 -9 -5 -35 -9 -58
-9 -29 0 -39 -3 -34 -12 5 -8 2 -9 -10 -5 -11 4 -29 -2 -49 -17 -18 -13 -48
-31 -67 -41 -60 -30 -207 -143 -167 -129 9 3 17 9 17 13 0 3 11 7 25 7 18 2
25 -3 25 -17 0 -10 5 -19 10 -19 23 0 7 -45 -29 -79 -59 -56 -103 -91 -112
-91 -5 0 -13 -9 -19 -20 -6 -11 -17 -20 -25 -20 -13 0 -52 -23 -113 -65 -12
-9 -19 -21 -16 -28 4 -7 4 -9 0 -5 -5 4 -30 -8 -57 -27 -27 -19 -58 -37 -69
-40 -11 -4 -18 -11 -15 -16 3 -5 0 -6 -8 -3 -14 5 -77 -60 -77 -80 0 -16 103
1 146 24 37 20 118 81 87 66 -6 -4 -14 -2 -18 3 -3 6 6 8 20 5 19 -3 36 3 58
22 18 15 31 31 29 36 -1 5 2 7 8 3 9 -5 100 51 100 62 0 2 -5 1 -12 -3 -7 -4
-8 -3 -4 5 4 6 11 9 16 6 5 -3 14 0 22 7 23 23 66 41 97 42 23 1 31 6 31 19 0
10 7 20 15 23 12 5 11 14 -6 57 -12 30 -18 61 -14 76 4 20 3 22 -5 11 -8 -12
-10 -8 -8 16 1 22 6 30 16 27 7 -3 33 13 57 37 38 37 47 41 74 35 21 -4 38 -2
48 7 10 8 14 8 10 1 -6 -9 1 -9 25 -2 18 5 53 9 78 8 25 -1 55 1 67 4 13 3 27
0 34 -9 17 -21 46 -17 63 8 19 27 21 89 4 107 -11 11 -10 12 0 6 10 -5 9 1 -2
24 -12 23 -24 31 -42 31 -20 0 -25 -4 -20 -16z"/>
<path d="M12792 14255 c-13 -29 -21 -59 -16 -66 4 -7 3 -10 -3 -6 -11 7 -37
-52 -28 -61 3 -3 5 -1 5 5 0 6 11 8 24 6 31 -6 87 23 84 44 -2 9 4 18 12 20
13 4 13 3 0 -6 -10 -7 -11 -11 -3 -11 12 0 43 49 43 69 0 12 -69 61 -85 61 -5
0 -21 -25 -33 -55z"/>
<path d="M8768 13909 c-10 -5 -31 -30 -48 -54 -17 -25 -36 -44 -42 -42 -6 1
-11 -15 -12 -38 -1 -37 1 -40 24 -37 16 2 43 -9 70 -27 25 -17 52 -31 61 -31
27 0 98 58 105 86 4 14 2 42 -4 62 -9 29 -22 43 -61 65 -53 29 -67 32 -93 16z"/>
<path d="M18837 13846 c-54 -17 -94 -36 -90 -41 5 -4 2 -5 -6 0 -8 4 -36 -3
-70 -18 -31 -14 -75 -33 -99 -43 -42 -17 -70 -48 -54 -58 4 -2 35 -8 69 -11
49 -6 67 -4 91 11 17 10 29 21 26 25 -2 4 1 11 7 15 8 4 9 3 5 -4 -10 -16 0
-15 40 4 19 9 32 19 30 23 -2 3 8 7 22 7 25 2 50 7 155 35 39 10 47 31 27 70
-14 25 -36 23 -153 -15z"/>
<path d="M16630 13729 c0 -6 9 -8 23 -4 20 5 20 5 4 -6 -13 -7 -22 -8 -29 -1
-7 7 -22 3 -45 -11 -27 -15 -53 -20 -109 -21 -41 0 -74 -4 -74 -8 0 -10 -43
-55 -53 -56 -30 0 -47 -12 -41 -29 5 -14 4 -15 -4 -4 -6 8 -17 11 -28 7 -16
-6 -16 -9 -4 -17 11 -7 8 -8 -10 -4 -20 5 -32 -2 -59 -29 -32 -33 -33 -35 -17
-57 9 -13 16 -29 16 -36 0 -14 -78 -93 -119 -120 -24 -15 -24 -17 -6 -24 27
-10 57 -11 51 -1 -3 5 1 9 9 9 8 0 12 -4 9 -9 -6 -10 8 -10 30 -2 14 5 14 9 4
23 -11 14 -11 14 2 5 8 -6 23 -14 34 -18 15 -5 18 -2 14 17 -4 20 -1 22 28 19
17 -2 35 1 38 7 4 6 16 11 27 11 15 0 19 6 17 22 -2 13 2 23 9 23 6 0 15 3 19
8 12 12 36 8 28 -5 -4 -6 -3 -8 4 -4 6 3 16 23 22 42 10 28 10 38 0 44 -8 5
-7 9 4 13 9 4 16 12 16 20 0 7 16 29 37 48 20 18 33 28 29 21 -6 -10 2 -11 36
-6 57 8 151 51 143 64 -4 6 -1 9 6 8 22 -5 21 30 0 51 -22 22 -61 28 -61 10z"/>
<path d="M7869 13614 c-18 -20 -67 -63 -106 -96 l-73 -59 -22 25 c-28 31 -88
47 -88 23 0 -30 11 -45 31 -40 12 4 21 -1 25 -13 12 -32 57 -74 80 -74 39 0
108 38 127 69 10 17 22 31 27 31 10 0 29 61 40 128 4 23 4 42 0 42 -3 0 -22
-16 -41 -36z"/>
<path d="M17398 13486 c-26 -7 -53 -17 -60 -23 -7 -6 -39 -18 -70 -27 -41 -12
-56 -20 -52 -30 7 -19 -14 -30 -30 -17 -10 8 -16 8 -25 -2 -6 -8 -8 -17 -4
-21 4 -4 0 -4 -9 -1 -9 4 -19 1 -24 -6 -4 -7 -3 -10 3 -6 6 4 13 0 17 -8 3 -8
0 -17 -6 -21 -6 -4 -8 -3 -5 2 3 6 -9 11 -28 12 -18 2 -37 -2 -40 -8 -11 -18
1 -23 25 -10 16 9 25 8 36 -1 12 -10 18 -8 34 8 10 12 16 24 12 29 -4 4 -2 4
5 0 6 -3 31 -1 55 5 24 6 77 17 118 24 127 22 179 36 202 55 17 14 20 21 12
30 -9 9 -14 9 -19 -1 -5 -8 -4 -10 3 -5 7 4 12 3 12 -3 0 -15 -20 -24 -21 -9
-1 7 -2 20 -3 28 -1 20 -76 23 -138 6z"/>
<path d="M15575 13194 c-66 -33 -125 -59 -131 -57 -16 6 -159 -71 -157 -83 1
-7 -6 -10 -16 -7 -17 4 -19 -2 -23 -50 -1 -31 -1 -55 2 -54 3 1 6 -1 7 -6 9
-28 35 -67 43 -62 5 3 14 -5 20 -17 11 -23 11 -23 -6 -3 l-17 20 8 -20 c4 -11
10 -30 12 -42 6 -25 18 -30 29 -11 4 6 3 8 -3 5 -5 -3 -10 0 -10 8 0 11 4 12
14 4 14 -12 73 5 73 22 0 4 12 9 28 11 15 2 26 8 25 16 -2 6 0 11 5 10 24 -8
82 68 82 109 0 21 30 51 80 82 19 11 30 21 24 21 -5 0 -19 7 -30 16 -10 8 -14
13 -7 10 7 -4 9 1 6 15 -4 14 -8 17 -13 9 -6 -9 -9 -9 -15 -1 -9 15 10 38 47
57 15 8 28 21 28 28 0 8 6 16 13 19 6 2 10 6 7 8 -3 2 -59 -23 -125 -57z"/>
<path d="M17110 13085 c-8 -9 -9 -15 -2 -15 6 0 13 4 17 9 6 11 45 11 45 0 0
-4 -7 -10 -16 -13 -8 -3 -12 -2 -9 4 3 6 2 10 -4 10 -5 0 -13 -5 -16 -10 -4
-6 -16 -8 -27 -4 -13 4 -25 -1 -34 -13 -9 -10 -12 -12 -8 -4 5 10 -3 8 -26 -5
-42 -24 -70 -50 -62 -59 4 -3 0 -4 -8 -1 -8 4 -26 -4 -40 -16 -14 -13 -19 -18
-10 -13 13 9 13 8 2 -7 -8 -9 -19 -15 -25 -12 -7 2 -18 -5 -25 -16 -11 -18
-10 -20 13 -20 14 0 37 11 51 25 14 14 30 25 37 26 7 0 3 5 -8 10 -17 8 -16 9
5 3 14 -3 30 -6 37 -6 6 -1 9 -6 7 -13 -6 -13 78 -55 111 -55 13 0 27 5 31 11
11 18 31 148 22 143 -4 -3 -8 -1 -8 5 0 5 5 11 12 13 6 2 9 12 5 21 -8 21 -50
22 -67 2z"/>
<path d="M15852 12869 c-23 -12 -62 -44 -86 -73 -37 -42 -45 -60 -49 -101 -3
-35 -8 -49 -18 -47 -10 3 -10 -1 2 -15 9 -10 22 -33 29 -51 19 -49 43 -61 109
-55 31 3 72 14 92 24 32 16 37 25 57 97 12 44 22 91 22 106 0 15 7 29 15 32
20 8 -81 104 -110 104 -11 0 -39 -10 -63 -21z"/>
<path d="M16858 12825 c-3 -3 -21 -7 -41 -8 -45 -4 -146 -65 -153 -94 -9 -33
35 -160 61 -177 40 -26 106 -29 142 -7 45 28 63 61 70 126 7 62 -12 135 -34
135 -7 0 -16 7 -19 15 -6 15 -16 19 -26 10z"/>
<path d="M18231 12744 c-6 -14 -9 -30 -5 -35 3 -5 2 -9 -3 -7 -4 1 -24 -5 -43
-14 -19 -8 -53 -19 -75 -23 -23 -5 -33 -10 -22 -12 20 -5 22 -19 5 -29 -7 -4
-10 -4 -6 1 5 5 -1 14 -11 21 -10 7 -21 27 -24 44 -8 39 -47 44 -47 6 0 -34
-18 -79 -37 -93 -16 -12 -16 -13 0 -13 9 0 17 3 17 8 0 4 26 8 58 10 31 1 85
12 120 23 46 16 75 19 111 14 41 -6 49 -4 56 12 5 10 8 21 7 25 -2 9 26 4 35
-7 4 -4 3 -5 -3 -2 -7 4 -17 0 -24 -8 -18 -22 1 -18 40 9 19 13 45 26 58 30
38 12 24 26 -25 26 -27 0 -68 9 -92 20 -57 26 -75 25 -90 -6z"/>
<path d="M16258 12531 c-63 -54 -116 -66 -163 -35 -22 14 -29 14 -67 1 -24 -9
-35 -16 -26 -16 37 -2 31 -51 -6 -51 -12 0 -31 -6 -42 -14 -11 -8 -50 -24 -87
-36 -37 -12 -74 -28 -82 -36 -16 -16 -29 -19 -20 -4 9 14 -17 12 -37 -4 -10
-7 -14 -17 -10 -21 4 -5 0 -6 -8 -3 -9 3 -24 0 -35 -8 -17 -12 -17 -14 -2 -14
9 0 17 3 17 8 0 4 51 7 114 7 102 0 117 2 138 21 13 12 63 33 112 48 63 20 85
30 75 37 -10 6 -5 8 16 6 17 -1 29 3 28 8 -1 6 6 11 15 12 9 1 37 6 62 12 25
6 65 14 89 18 53 10 70 31 53 67 -10 22 -18 26 -56 26 -35 0 -53 -6 -78 -29z"/>
<path d="M19761 12281 c-11 -7 -11 -9 0 -14 8 -3 0 -4 -17 -2 -37 4 -102 -15
-108 -32 -3 -7 3 -21 12 -32 15 -18 30 -21 120 -22 145 -2 160 18 68 89 -30
23 -52 27 -75 13z"/>
<path d="M17075 11898 c-5 -5 -24 -18 -42 -28 -99 -59 -60 -144 56 -119 l49
10 4 47 c3 36 0 51 -13 65 -19 17 -34 23 -25 9 2 -4 -4 -9 -15 -9 -17 -2 -18
1 -8 13 14 17 9 26 -6 12z"/>
<path d="M7286 11806 c-23 -19 -46 -107 -46 -178 0 -84 -18 -129 -74 -188 -23
-25 -51 -64 -61 -88 -17 -39 -17 -43 -2 -60 10 -10 17 -24 17 -31 0 -24 -42
-72 -89 -102 -25 -16 -43 -29 -38 -29 4 0 16 5 26 12 15 9 24 8 45 -5 25 -17
25 -18 10 -42 -16 -25 -16 -64 2 -123 5 -18 2 -24 -15 -29 -11 -3 -18 -9 -16
-14 3 -4 -8 -27 -24 -49 -45 -62 -57 -105 -37 -135 9 -13 16 -31 16 -39 0 -20
57 -59 75 -52 8 3 15 12 15 21 0 8 7 15 15 15 8 0 19 9 25 20 12 23 47 26 73
6 27 -21 8 -50 -42 -65 -22 -6 -43 -16 -46 -21 -8 -13 7 -13 39 -1 24 10 24 9
19 -23 -6 -41 6 -51 67 -51 41 0 46 -3 65 -37 18 -34 18 -40 5 -85 -7 -26 -15
-71 -18 -100 -3 -41 -11 -60 -37 -90 -32 -37 -34 -38 -92 -35 -48 2 -62 -1
-76 -16 -19 -21 -36 -121 -21 -123 98 -8 148 -24 124 -39 -9 -5 -6 -12 10 -23
12 -8 19 -20 16 -26 -4 -6 4 -13 19 -17 29 -7 48 4 114 65 l43 41 -3 72 c-4
64 -2 73 13 70 21 -3 65 33 84 70 8 15 14 47 14 71 0 45 -8 60 -74 142 -28 35
-29 39 -15 63 25 45 41 48 102 18 30 -14 58 -33 61 -42 3 -8 1 -12 -4 -9 -16
10 -47 -13 -57 -42 -13 -39 -3 -70 31 -92 28 -19 62 -18 50 0 -3 5 3 6 12 2
12 -4 15 -3 10 5 -5 8 -2 10 8 6 9 -3 21 -25 28 -48 6 -22 26 -57 43 -77 18
-20 35 -53 39 -74 6 -31 4 -40 -14 -52 -11 -8 -31 -36 -45 -62 -25 -50 -37
-127 -20 -124 6 1 9 -15 7 -38 -3 -25 2 -48 12 -64 9 -13 16 -32 16 -41 0 -13
6 -15 27 -9 23 5 25 4 14 -9 -8 -9 -23 -16 -34 -16 -11 0 -37 -18 -58 -40 -21
-22 -41 -40 -44 -40 -4 0 -21 -16 -39 -35 -19 -19 -30 -35 -26 -35 4 0 13 7
20 15 7 8 15 15 19 15 14 0 31 -68 31 -121 0 -74 16 -103 60 -107 41 -4 60
-24 60 -67 0 -17 6 -37 13 -44 9 -11 9 -14 0 -18 -7 -2 -29 -16 -49 -29 -20
-14 -54 -32 -76 -41 -42 -17 -78 -55 -78 -84 0 -10 16 -30 36 -45 30 -23 35
-32 30 -55 -8 -43 12 -96 54 -140 33 -35 41 -39 59 -30 28 16 71 92 71 127 0
16 -9 46 -20 67 -31 57 -26 83 19 111 21 14 48 36 59 50 l20 26 81 -17 81 -17
0 -33 c0 -17 5 -35 10 -38 6 -3 10 -22 10 -40 0 -28 -10 -46 -50 -89 -54 -60
-77 -100 -95 -161 -10 -33 -23 -48 -80 -86 -37 -25 -72 -54 -77 -63 -5 -10 -7
-43 -4 -74 3 -31 9 -87 12 -125 5 -51 11 -71 26 -81 19 -13 19 -15 3 -46 -9
-17 -14 -34 -12 -37 3 -2 10 5 17 16 6 12 15 21 20 21 5 0 -4 -28 -20 -62
l-30 -63 47 -3 c38 -2 55 -10 83 -36 19 -18 52 -45 73 -60 23 -17 36 -34 33
-42 -8 -22 4 -45 31 -55 18 -6 23 -14 18 -28 -3 -10 1 -24 10 -31 9 -7 13 -21
10 -31 -8 -23 12 -34 31 -18 13 11 19 8 40 -17 13 -16 21 -21 18 -11 -5 14 0
17 25 17 24 0 31 4 31 19 0 25 35 68 70 86 33 17 112 20 141 5 26 -14 46 -56
54 -115 10 -66 28 -99 67 -123 41 -26 77 -72 84 -112 6 -26 11 -30 38 -30 17
0 46 9 64 20 31 19 32 21 26 72 -3 29 -1 72 5 95 9 34 18 45 54 62 59 29 112
28 140 -2 12 -13 32 -29 44 -36 30 -16 113 -191 123 -261 4 -30 11 -67 15 -81
8 -33 52 -58 85 -49 23 6 25 11 25 59 0 43 4 56 21 67 19 13 27 11 82 -26 34
-23 66 -39 71 -36 4 3 14 19 21 36 7 17 18 29 25 26 18 -7 37 62 23 87 -9 18
-8 19 16 13 22 -5 26 -3 26 16 l0 22 22 -21 21 -22 29 37 c25 31 28 42 23 72
-13 67 -10 76 39 109 24 17 46 38 50 47 9 24 -20 52 -63 60 -48 9 -60 28 -61
92 0 50 2 53 40 80 21 15 39 29 40 32 0 3 -44 21 -98 40 -147 53 -412 188
-552 282 -165 110 -294 214 -427 346 -345 339 -578 786 -658 1262 -22 130 -31
439 -16 581 21 207 84 460 159 647 26 61 18 65 -50 21 -127 -82 -214 -250
-262 -509 -3 -14 -3 49 -1 140 4 159 18 275 49 425 8 39 12 73 8 77 -17 16
-145 41 -223 43 -47 1 -91 5 -98 10 -10 5 -12 22 -8 58 7 56 -1 77 -37 101
-34 21 -142 37 -160 22z m2123 -3726 c9 -28 13 -30 60 -30 56 0 54 3 52 -80
-2 -77 -11 -130 -22 -130 -5 0 -9 6 -9 14 0 27 -50 56 -96 56 -23 0 -45 -4
-49 -9 -12 -21 -64 11 -96 60 -38 59 -34 84 12 75 31 -6 44 1 98 56 24 25 38
21 50 -12z"/>
<path d="M15566 11534 c-9 -24 -7 -83 4 -104 7 -13 6 -21 -5 -30 -8 -7 -15
-19 -15 -26 0 -8 -11 -14 -27 -14 -16 -1 -41 -12 -58 -26 l-30 -25 22 -18 c18
-15 34 -17 100 -13 52 3 83 9 93 20 11 11 12 13 1 7 -10 -6 -12 -4 -7 4 6 9
11 9 21 1 8 -7 24 -9 36 -5 13 4 51 7 86 6 49 -1 61 2 57 13 -3 7 2 16 10 19
10 4 13 1 10 -7 -4 -10 12 -15 61 -21 37 -4 71 -3 76 2 4 4 9 32 10 61 2 28 6
52 10 52 4 0 10 23 14 51 8 55 -5 83 -27 61 -7 -7 -27 -12 -45 -12 -26 0 -36
-6 -49 -31 -13 -26 -14 -33 -2 -41 10 -8 9 -9 -4 -5 -15 5 -55 -27 -51 -42 1
-3 -1 -8 -4 -11 -4 -3 -3 1 1 8 5 8 -1 12 -19 12 -17 0 -24 -4 -19 -12 4 -7 3
-8 -5 -4 -6 4 -9 11 -7 15 3 4 -15 17 -40 29 -24 12 -48 30 -51 40 -9 25 -23
32 -63 32 -20 0 -45 7 -57 15 -19 13 -22 13 -27 -1z"/>
<path d="M6706 11505 c-26 -18 -61 -46 -77 -61 -31 -30 -51 -82 -38 -99 4 -6
12 -30 18 -54 l9 -43 -26 7 c-35 8 -31 5 104 -94 107 -77 140 -97 115 -68 -6
8 -8 16 -5 20 3 3 -3 12 -15 19 -12 7 -21 17 -21 21 0 8 83 3 135 -8 13 -3 24
3 30 14 6 10 19 36 31 57 26 48 59 211 51 245 -9 34 -49 51 -102 43 -30 -4
-52 -1 -74 10 -17 9 -36 14 -41 11 -5 -3 -11 -1 -15 5 -10 16 -26 11 -79 -25z"/>
<path d="M6300 11358 c0 -20 -37 -39 -98 -48 -66 -11 -92 -33 -122 -103 -31
-70 -37 -155 -16 -207 9 -22 16 -50 16 -63 1 -22 11 -30 138 -119 65 -45 77
-42 124 36 18 29 46 72 62 94 21 31 29 57 33 104 6 75 -18 182 -47 213 -11 12
-20 35 -20 53 0 34 -2 36 -42 46 -20 4 -28 2 -28 -6z"/>
<path d="M18665 11331 c-67 -7 -94 -21 -139 -69 -54 -59 -86 -123 -86 -172 0
-51 31 -127 55 -136 9 -4 13 -13 10 -24 -4 -13 6 -22 44 -39 27 -11 58 -21 68
-21 12 0 58 55 129 153 109 148 112 153 98 179 -8 15 -14 34 -14 44 0 18 -78
94 -95 92 -5 -1 -37 -4 -70 -7z"/>
<path d="M9638 11253 c-19 -5 -20 -8 -39 -118 -6 -38 -20 -101 -30 -140 -28
-105 -45 -332 -29 -389 14 -52 29 -57 79 -28 28 15 31 22 30 62 0 25 6 70 15
100 9 30 16 82 17 115 0 33 3 78 7 100 l7 40 48 -50 c41 -42 50 -48 65 -37 9
7 27 16 40 22 12 5 22 14 22 20 0 5 5 10 11 10 6 0 10 -15 8 -37 -8 -102 24
-249 63 -290 26 -27 84 -31 128 -8 36 19 39 46 9 94 -16 27 -23 66 -34 206
-13 163 -33 255 -56 255 -5 0 -18 9 -29 20 -22 22 -63 35 -84 27 -7 -3 -26
-26 -42 -51 -16 -25 -35 -45 -43 -43 -8 1 -24 20 -35 42 -12 21 -36 50 -55 62
-34 23 -41 25 -73 16z"/>
<path d="M10610 11193 c-19 -15 -41 -34 -48 -43 -27 -32 -65 -117 -102 -227
-21 -64 -43 -120 -49 -126 -6 -6 -13 5 -21 34 -28 115 -94 298 -118 334 -24
34 -34 40 -69 43 -60 4 -77 -17 -69 -87 5 -49 67 -280 94 -352 6 -14 13 -52
17 -85 8 -64 20 -89 62 -128 46 -43 76 -50 118 -30 67 31 132 145 216 377 42
115 42 119 26 146 -15 26 -15 32 -2 65 8 19 15 51 15 71 0 44 -20 46 -70 8z"/>
<path d="M10755 11191 c-3 -6 -1 -20 5 -32 7 -12 9 -40 6 -67 -4 -26 -8 -105
-10 -177 -2 -71 -7 -168 -11 -215 l-8 -85 35 -45 c61 -80 140 -116 196 -90 15
7 37 14 48 16 43 5 83 35 133 99 45 57 49 66 34 73 -20 8 -215 10 -252 2 -22
-4 -26 0 -33 30 -4 19 -10 89 -12 155 -7 218 -29 319 -71 331 -11 3 -27 8 -37
10 -9 3 -19 0 -23 -5z"/>
<path d="M19123 11068 c-18 -13 -33 -28 -33 -35 0 -15 50 -54 61 -47 5 3 9 0
9 -6 0 -6 4 -9 9 -5 5 3 13 0 17 -6 4 -8 3 -9 -4 -5 -8 5 -12 0 -12 -13 0 -12
-7 -21 -15 -21 -31 0 -13 -26 25 -36 31 -9 40 -8 44 3 3 8 14 13 23 11 12 -2
21 7 29 32 10 30 16 35 48 38 20 2 34 7 31 11 -2 5 21 2 52 -5 31 -7 60 -11
65 -8 14 9 5 37 -12 40 -104 22 -157 37 -190 54 -52 27 -107 26 -147 -2z"/>
<path d="M16230 10913 c-96 -9 -122 -16 -142 -36 -11 -12 -17 -15 -13 -7 7 12
6 13 -6 2 -12 -11 -12 -14 1 -22 14 -9 100 -15 178 -13 44 1 67 23 58 57 -6
26 -7 26 -34 10 -24 -15 -25 -15 -8 0 11 9 16 15 10 14 -5 0 -25 -3 -44 -5z"/>
<path d="M6472 10630 c-54 -8 -94 -49 -86 -89 3 -14 7 -35 9 -46 3 -12 -2 -33
-10 -48 -7 -15 -10 -29 -6 -31 4 -3 44 -8 88 -12 80 -7 81 -6 99 21 10 15 20
53 22 84 3 46 0 61 -18 84 -30 37 -48 44 -98 37z"/>
<path d="M16903 10590 c-16 -6 -21 -15 -17 -27 5 -17 5 -17 -6 0 -10 16 -13
16 -50 -5 -22 -13 -40 -26 -40 -30 0 -11 18 -10 25 2 3 6 11 10 18 10 6 0 3
-6 -8 -13 -12 -9 -15 -19 -10 -28 5 -8 -3 -4 -17 9 -22 20 -27 21 -37 8 -9
-11 -10 -20 -1 -35 10 -20 23 -29 18 -13 -2 4 1 7 7 7 5 0 10 -8 10 -18 1 -11
-3 -16 -11 -13 -7 3 -15 -1 -18 -9 -3 -8 0 -15 7 -18 6 -2 3 -6 -7 -10 -10 -4
-15 -3 -11 3 9 15 -11 12 -24 -4 -8 -10 -9 -16 -1 -21 5 -3 10 -3 10 0 0 4 7
-1 16 -9 12 -12 20 -13 35 -5 11 5 16 15 13 21 -4 6 -3 8 3 5 13 -8 47 28 39
41 -3 6 2 8 13 5 12 -3 36 11 72 43 30 26 55 52 57 58 2 6 -1 4 -7 -4 -8 -12
-11 -7 -11 23 0 32 -3 37 -22 36 -13 0 -33 -4 -45 -9z"/>
<path d="M9709 10473 c-43 -48 -109 -167 -109 -199 0 -16 7 -40 16 -52 29 -42
71 -21 93 49 6 20 23 47 37 60 l26 24 -7 -61 c-7 -55 -5 -64 14 -83 30 -30 50
-26 98 21 l43 42 0 -41 c0 -33 5 -46 27 -63 15 -11 34 -19 42 -18 46 9 93 194
60 234 -32 39 -75 37 -141 -9 l-28 -18 0 24 c0 46 -37 73 -102 76 -9 1 -20 10
-23 21 -8 27 -16 25 -46 -7z"/>
<path d="M10645 10411 c-3 -6 -5 -36 -4 -68 2 -35 -6 -89 -19 -136 -12 -42
-22 -86 -22 -97 0 -33 33 -23 80 25 l44 45 36 -33 c40 -37 75 -58 83 -51 11
12 -7 81 -35 131 l-29 52 21 41 c38 75 11 113 -49 69 l-31 -23 -22 21 c-33 29
-46 35 -53 24z"/>
<path d="M10293 10223 c-28 -68 0 -163 48 -163 20 0 26 14 39 95 12 75 1 105
-40 105 -26 0 -33 -6 -47 -37z"/>
<path d="M15980 10148 c-86 -9 -155 -40 -179 -81 -14 -24 -14 -29 -1 -37 13
-9 7 -14 -12 -11 -20 3 -4 -32 31 -70 38 -40 42 -41 95 -37 32 2 54 -1 53 -7
-1 -5 12 -11 28 -13 29 -2 30 -2 7 11 l-23 13 21 19 c11 10 20 28 20 41 0 13
4 25 9 29 6 3 10 -12 9 -35 0 -23 3 -44 7 -48 4 -4 5 19 3 51 -3 49 -1 57 15
57 10 0 17 8 17 19 0 11 5 23 10 26 6 3 10 15 10 26 0 11 -4 17 -10 14 -5 -3
-7 0 -4 9 9 24 -26 33 -106 24z"/>
<path d="M4878 10120 c-26 -26 -29 -36 -24 -65 6 -33 5 -34 -29 -41 -48 -9
-91 -54 -98 -101 -6 -47 8 -63 61 -70 35 -5 42 -2 56 20 9 13 19 42 21 63 7
54 21 77 60 98 42 23 62 67 47 101 -16 35 -56 33 -94 -5z"/>
<path d="M15092 9883 c-6 -2 -9 -10 -6 -15 4 -7 2 -8 -4 -4 -6 4 -25 0 -42 -9
-23 -12 -30 -22 -30 -46 0 -52 28 -87 75 -95 80 -12 189 19 191 55 2 19 1 19
-3 1 -4 -18 -25 -30 -22 -12 4 22 -2 42 -11 37 -6 -4 -7 1 -3 11 5 14 3 16
-12 10 -11 -4 -16 -4 -12 0 4 4 -6 18 -21 32 -16 16 -20 23 -9 19 9 -3 17 -3
17 2 0 15 -79 26 -108 14z"/>
<path d="M6982 9579 c-18 -5 -30 -13 -28 -18 3 -4 -8 -7 -24 -6 -19 1 -30 -4
-33 -15 -2 -10 -23 -22 -50 -30 -26 -7 -44 -16 -42 -20 3 -5 -5 -6 -17 -3 -19
4 -20 3 -8 -6 19 -13 9 -14 -24 -1 -21 8 -27 6 -36 -10 -14 -26 -13 -30 10
-30 33 0 23 -17 -42 -70 -135 -110 -158 -132 -158 -148 0 -21 84 -112 104
-112 16 0 56 46 56 65 0 7 13 29 29 49 29 37 57 123 52 163 -3 26 18 41 30 22
6 -10 9 -11 9 -1 0 8 22 12 78 12 89 0 139 12 187 45 19 12 58 28 86 35 58 14
68 29 45 65 -16 24 -21 25 -104 24 -48 0 -102 -5 -120 -10z"/>
<path d="M16895 9359 c-62 -15 -170 -59 -138 -56 18 2 30 0 27 -4 -7 -12 63
-24 131 -23 42 0 72 7 100 22 22 12 33 22 24 22 -8 0 -32 9 -52 19 -53 27 -59
28 -92 20z"/>
<path d="M17260 9189 c0 -5 5 -7 10 -4 6 3 10 1 10 -4 0 -6 -4 -11 -10 -11 -5
0 -10 -4 -10 -10 0 -16 55 -39 102 -43 25 -2 50 -7 55 -10 6 -4 43 -9 82 -10
39 -2 76 -9 83 -14 35 -28 187 -20 204 10 4 7 4 9 -1 5 -4 -4 -18 6 -32 23
-15 18 -34 29 -49 29 -14 0 -23 -4 -19 -10 3 -5 13 -7 23 -4 14 5 15 4 2 -5
-11 -7 -20 -5 -37 10 -16 16 -33 20 -70 19 -65 -3 -73 -2 -73 12 0 9 3 9 12 0
7 -7 16 -12 22 -12 5 0 1 7 -10 15 -23 18 -85 19 -103 3 -8 -7 -11 -8 -8 -2 4
7 -16 13 -61 18 -95 8 -122 8 -122 -5z"/>
<path d="M5415 8905 c-21 -20 -25 -34 -25 -83 0 -70 22 -99 65 -88 49 12 75
49 75 105 0 42 -4 53 -26 70 -35 27 -59 26 -89 -4z"/>
<path d="M19152 8904 c-12 -8 -22 -21 -22 -29 0 -28 208 -72 224 -47 8 14 -4
43 -15 36 -5 -3 -6 2 -3 10 3 8 12 12 20 9 31 -12 12 9 -21 23 -47 19 -154 18
-183 -2z"/>
<path d="M14830 8872 c0 -5 16 -29 35 -52 19 -23 35 -43 35 -43 0 -1 -10 -3
-22 -4 -42 -3 -83 -15 -100 -31 -21 -18 -53 -8 -44 14 5 12 2 15 -11 9 -45
-18 -57 -19 -50 -2 5 14 0 17 -33 17 -26 0 -47 7 -59 19 -18 18 -18 18 -31 -2
-10 -17 -10 -19 4 -14 9 4 41 -6 73 -22 46 -24 61 -27 78 -19 17 10 18 9 7 -4
-14 -17 -4 -22 98 -48 25 -7 75 -25 113 -41 43 -18 67 -24 67 -16 0 7 5 4 11
-5 6 -12 22 -18 43 -18 32 0 34 2 55 66 12 37 19 74 16 84 -7 22 -53 34 -95
25 -16 -3 -50 -3 -75 1 -39 5 -51 13 -80 52 -19 25 -35 40 -35 34z"/>
<path d="M7427 8733 c-36 -6 -75 -64 -92 -138 -11 -47 -11 -56 3 -67 11 -10
16 -10 19 -1 2 7 11 9 19 6 8 -3 21 0 29 7 8 7 26 9 42 6 40 -9 73 41 73 111
0 65 -25 86 -93 76z"/>
<path d="M11715 8369 c-33 -16 -52 -27 -43 -25 10 3 20 1 23 -4 3 -5 -10 -7
-30 -4 -24 3 -54 -5 -100 -26 -36 -16 -70 -30 -76 -30 -6 0 -7 -5 -3 -12 4 -6
3 -8 -4 -4 -6 3 -62 -9 -124 -28 -357 -108 -806 -143 -1178 -91 -128 18 -370
67 -444 90 -27 8 -50 14 -51 13 -7 -8 -11 -107 -5 -103 4 2 15 -13 25 -35 22
-48 59 -85 76 -75 7 5 10 4 6 -2 -4 -6 4 -20 17 -32 13 -13 39 -44 57 -71 18
-27 41 -51 50 -53 9 -3 20 -20 24 -38 4 -19 16 -50 26 -69 11 -19 19 -52 19
-72 0 -31 4 -38 19 -38 11 0 23 5 26 11 5 7 16 2 31 -12 30 -28 30 -27 -2 57
-32 84 -46 148 -38 180 5 21 12 24 51 24 63 0 101 -23 124 -75 15 -34 25 -44
47 -47 20 -2 33 -14 50 -45 13 -24 27 -43 32 -43 13 0 95 82 103 103 7 17 8
17 37 -3 l30 -21 0 25 c0 22 5 26 29 26 44 0 83 17 107 47 l22 26 7 -32 c9
-41 28 -39 55 5 16 25 26 32 33 25 6 -6 22 -11 37 -11 26 0 67 -20 42 -20 -16
0 -11 -50 8 -92 7 -14 10 -38 6 -52 -6 -23 -9 -24 -32 -16 -27 11 -44 6 -44
-11 0 -6 5 -7 12 -3 7 4 8 3 4 -5 -6 -9 -11 -9 -21 -1 -9 8 -21 0 -48 -29 -39
-44 -57 -93 -57 -160 0 -36 -5 -48 -34 -75 -22 -20 -35 -44 -39 -68 -3 -21 -3
-38 1 -38 10 0 32 -50 32 -73 0 -27 41 -117 54 -118 6 -1 14 -1 19 0 4 0 6 -5
5 -11 -2 -7 3 -12 10 -10 8 1 11 -2 8 -7 -4 -5 -2 -12 4 -16 5 -3 10 -14 10
-23 0 -10 12 -25 28 -34 20 -13 22 -18 10 -18 -10 0 -18 5 -18 12 0 6 -3 8 -6
5 -11 -11 18 -38 33 -33 9 4 11 1 7 -6 -5 -8 -2 -9 10 -5 9 4 15 3 12 -2 -7
-11 22 -23 36 -14 6 3 8 1 4 -5 -6 -9 36 -29 103 -48 18 -5 22 -3 16 7 -4 8 2
4 14 -8 17 -18 33 -23 77 -23 30 0 53 4 50 9 -3 4 5 6 18 4 13 -3 34 1 47 8
46 25 51 22 44 -32 -8 -54 4 -79 36 -79 32 0 28 58 -6 111 l-23 36 24 -5 c24
-4 58 14 50 27 -5 7 3 9 67 14 21 2 43 10 47 18 7 10 9 8 8 -8 -1 -13 -7 -19
-15 -16 -20 8 24 -64 50 -82 20 -14 22 -13 29 2 6 16 7 16 7 -1 1 -11 4 -16 8
-13 3 4 12 2 20 -4 10 -9 13 -8 13 0 0 7 4 10 9 7 13 -9 34 21 25 36 -6 9 -3
9 9 -1 15 -12 17 -12 12 2 -4 8 -1 18 6 23 7 4 10 3 5 -4 -3 -6 -2 -13 3 -16
11 -7 24 52 14 67 -3 5 -1 7 5 3 13 -8 44 33 35 47 -3 6 -1 7 5 3 16 -10 27
15 11 26 -11 7 -9 8 6 6 15 -2 21 3 22 22 2 23 2 23 -6 5 -9 -18 -10 -19 -10
-1 -1 13 -5 16 -18 11 -35 -15 -113 -29 -120 -21 -5 5 2 15 15 23 24 17 28 39
11 63 -9 12 -10 11 -6 -6 2 -12 1 -28 -4 -35 -7 -11 -9 -11 -9 -1 0 7 -5 10
-12 6 -7 -5 -8 -3 -3 7 5 7 8 29 7 49 -1 27 1 30 7 15 7 -17 9 -15 13 15 3 21
1 38 -6 42 -8 6 -8 8 0 8 10 0 28 80 19 88 -2 2 -13 -1 -24 -7 -17 -10 -20 -9
-15 4 3 8 11 12 17 8 7 -4 8 0 3 12 -5 15 -4 16 9 5 12 -10 16 -8 25 14 16 43
23 83 12 67 -14 -20 -36 23 -27 56 4 18 3 23 -7 17 -9 -5 -10 -4 -3 4 6 6 20
9 33 6 16 -5 22 -14 22 -36 0 -16 4 -27 9 -23 14 8 21 -8 32 -76 11 -72 24
-99 72 -154 l34 -39 44 13 c56 16 79 37 79 70 l1 26 19 -23 c10 -12 20 -28 23
-35 2 -6 7 -9 11 -5 4 3 0 20 -9 37 -9 18 -13 36 -10 41 3 5 -31 36 -75 70
-44 33 -84 69 -90 80 -6 11 -20 24 -31 30 -20 11 -20 11 1 -29 11 -23 18 -41
15 -41 -21 0 -45 25 -55 56 -12 34 -11 37 21 64 19 16 39 29 45 30 6 0 16 10
23 23 7 13 26 32 42 41 26 15 28 20 17 34 -10 14 -10 15 2 5 8 -7 29 -13 47
-13 26 0 33 4 33 20 0 16 7 20 34 20 22 0 45 9 64 25 36 31 42 31 42 4 0 -12
10 -48 21 -80 23 -63 50 -83 77 -56 13 14 14 26 3 87 -6 40 -19 86 -27 102
l-16 30 -27 -26 c-15 -14 -29 -26 -32 -26 -3 0 -6 19 -7 43 -3 48 -20 99 -32
92 -4 -3 -7 3 -6 13 0 9 -4 16 -9 15 -6 -1 -11 6 -12 15 -4 56 -11 104 -18
110 -5 4 -5 -1 -2 -11 4 -11 3 -16 -3 -12 -6 3 -10 12 -10 19 0 16 -44 58 -53
51 -4 -3 -3 0 2 6 13 15 -6 54 -33 68 -16 9 -16 10 -2 6 16 -5 17 -3 6 10 -7
8 -17 12 -23 8 -6 -3 -7 -1 -3 5 7 11 -25 64 -54 90 -10 9 -10 11 -1 6 10 -5
11 -1 6 17 -11 38 -16 38 -80 8z"/>
<path d="M7208 8018 c-16 -5 -28 -13 -28 -18 0 -4 -20 -30 -45 -58 -49 -54
-56 -68 -26 -52 27 14 31 13 31 -9 0 -11 -8 -21 -17 -23 -14 -2 -8 -9 20 -27
21 -13 36 -28 34 -34 -3 -11 56 -77 68 -77 30 0 56 37 94 133 18 46 13 107
-11 144 -19 27 -29 33 -58 32 -19 0 -47 -5 -62 -11z"/>
<path d="M13842 7959 c-18 -5 -30 -14 -27 -19 3 -5 0 -12 -6 -16 -8 -4 -9 -3
-5 4 13 22 -5 12 -36 -18 -19 -20 -31 -43 -34 -68 -6 -52 43 -108 103 -116 32
-4 43 -2 47 11 6 14 4 14 -11 2 -16 -13 -17 -12 -5 3 8 9 20 14 27 12 7 -3 23
4 34 15 12 12 27 21 34 21 8 0 7 4 -3 10 -9 6 -10 10 -3 10 6 0 15 -4 18 -10
10 -17 35 -11 35 8 0 10 -7 27 -15 38 -15 19 -15 19 -9 -1 4 -15 3 -16 -4 -6
-5 7 -7 22 -4 34 4 15 2 18 -8 12 -8 -5 -11 -4 -7 3 9 13 -2 44 -13 37 -4 -3
-11 2 -14 11 -4 10 -2 13 7 8 8 -5 7 -2 -2 9 -15 19 -48 20 -99 6z"/>
<path d="M12945 7910 c-83 -6 -214 -48 -194 -61 9 -6 2 -7 -17 -3 -38 7 -78
-11 -70 -32 3 -9 1 -12 -4 -9 -24 15 -8 -62 20 -99 17 -22 30 -51 30 -65 0
-55 26 -103 65 -122 21 -10 42 -16 48 -12 5 3 7 2 4 -4 -4 -6 5 -15 19 -22 31
-14 55 -15 34 -1 -10 7 -11 10 -2 10 7 0 15 -6 18 -14 8 -21 39 -26 68 -11 13
7 27 11 29 8 9 -8 27 34 19 42 -4 5 -2 5 5 1 7 -4 26 6 45 23 29 26 31 30 18
47 -14 18 -14 18 3 5 9 -7 17 -27 17 -44 0 -61 9 -19 20 98 15 168 19 183 42
191 14 4 17 9 9 17 -14 14 -41 -9 -41 -35 0 -12 -4 -16 -11 -12 -8 5 -10 -1
-7 -19 3 -15 1 -24 -3 -21 -5 3 -9 -2 -9 -11 0 -15 -2 -15 -15 -1 -8 8 -15 18
-15 23 0 24 -47 112 -57 108 -7 -2 -13 0 -13 4 0 5 6 11 13 14 26 9 -1 12 -68
7z"/>
<path d="M16017 7883 c-9 -2 -15 -8 -12 -13 3 -4 -3 -7 -13 -6 -9 0 -16 -5
-14 -12 1 -8 -2 -11 -7 -7 -14 8 -31 -28 -31 -63 0 -33 34 -62 72 -62 36 1
111 38 102 51 -4 7 -3 9 3 6 15 -10 35 18 31 44 -6 41 -81 76 -131 62z"/>
<path d="M12460 7778 c0 -26 -5 -59 -12 -73 -10 -23 -10 -28 5 -36 9 -6 17
-16 17 -23 0 -7 11 -34 24 -59 13 -26 19 -47 13 -47 -6 0 2 -13 18 -30 16 -16
33 -30 38 -30 29 0 -39 263 -83 320 l-20 25 0 -47z"/>
<path d="M8433 7688 c-12 -6 -24 -22 -28 -36 -3 -14 -15 -38 -26 -53 -10 -15
-19 -38 -19 -51 0 -28 -55 -145 -104 -223 -42 -65 -44 -80 -13 -96 12 -6 41
-31 64 -55 47 -48 93 -60 93 -24 0 10 5 30 11 43 9 20 6 30 -15 62 -14 21 -26
43 -26 49 0 34 77 96 120 96 14 0 39 17 65 45 40 43 41 46 24 64 -10 11 -33
24 -52 30 -39 13 -64 50 -50 75 12 22 4 86 -11 85 -6 0 -21 -5 -33 -11z"/>
<path d="M6278 7570 c-76 -82 -98 -122 -98 -181 l0 -42 23 19 c12 11 34 28 49
37 28 18 48 68 48 123 0 17 11 48 25 69 15 20 24 39 22 41 -2 2 -33 -27 -69
-66z"/>
<path d="M13430 7517 c-62 -21 -121 -57 -114 -69 4 -7 3 -8 -5 -4 -7 5 -31
-12 -62 -44 -39 -40 -50 -58 -46 -76 2 -13 1 -22 -2 -21 -15 3 -71 -35 -71
-49 0 -8 4 -13 9 -10 5 4 7 -2 4 -13 -5 -21 12 -37 22 -21 3 5 12 10 18 10 7
0 6 -4 -3 -10 -13 -8 -12 -10 5 -11 11 -1 25 -3 32 -3 15 -2 26 -13 29 -31 3
-22 38 -65 50 -61 6 2 17 0 25 -6 11 -8 9 -8 -6 -4 -20 6 -20 6 -1 -9 41 -32
194 -9 263 39 26 18 49 38 51 45 3 9 0 11 -8 6 -8 -5 -5 3 6 17 10 14 21 24
23 22 2 -2 -2 -11 -10 -21 -8 -9 3 -4 23 12 32 25 37 36 43 86 4 32 4 62 1 68
-4 5 -2 12 4 16 5 3 10 34 10 68 0 44 -3 58 -10 47 -8 -13 -14 -8 -12 11 1 4
-42 9 -96 12 -53 3 -106 7 -117 10 -11 3 -36 1 -55 -6z"/>
<path d="M10220 7503 c-19 -6 -43 -12 -53 -12 -9 -1 -33 -9 -52 -20 -31 -16
-33 -19 -15 -24 11 -3 18 -1 14 4 -3 5 -1 9 4 9 20 0 20 -42 1 -61 -18 -18
-19 -25 -9 -54 6 -19 8 -51 5 -72 l-6 -38 36 58 c29 45 40 55 50 47 22 -18 27
6 10 46 -12 29 -13 40 -4 48 9 8 10 7 4 -3 -6 -11 -4 -13 11 -7 10 4 15 4 11
0 -11 -11 50 -34 70 -27 11 4 14 3 9 -5 -5 -8 8 -16 38 -24 25 -7 48 -18 50
-25 3 -7 0 -12 -7 -10 -6 1 -13 -9 -15 -22 -2 -15 0 -21 7 -17 6 4 11 0 11 -9
0 -9 -4 -13 -10 -10 -11 7 -12 -21 -2 -47 6 -15 9 -15 31 3 19 16 21 22 11 34
-10 12 -9 21 3 47 27 58 30 86 13 113 -9 14 -24 24 -34 23 -9 -2 -17 4 -17 12
0 8 -8 15 -17 15 -9 0 -20 4 -25 9 -5 5 -2 6 6 1 8 -5 12 -4 8 1 -3 6 -25 11
-49 13 -23 1 -45 5 -48 9 -3 4 -21 2 -40 -5z"/>
<path d="M7815 7416 c-98 -135 -116 -184 -74 -206 24 -13 49 -7 49 12 0 7 9
29 19 49 26 49 43 116 36 139 -7 23 -16 25 -30 6z"/>
<path d="M5893 7218 c-23 -24 -62 -67 -85 -96 -24 -30 -60 -75 -81 -100 -42
-51 -67 -100 -67 -130 0 -18 3 -18 43 -5 32 11 50 26 76 63 19 28 49 61 67 75
18 13 40 40 51 60 10 19 35 60 57 89 23 33 36 61 33 70 -11 29 -51 18 -94 -26z"/>
<path d="M12459 7144 c-24 -25 -24 -26 -4 -40 11 -8 25 -12 33 -9 7 2 10 0 7
-5 -5 -9 10 -18 50 -31 6 -1 19 -11 29 -21 25 -23 39 -23 60 1 18 20 13 47 -6
35 -6 -4 -8 -3 -5 3 11 17 -89 93 -121 93 -10 0 -29 -12 -43 -26z"/>
<path d="M14040 7121 c0 -39 6 -56 30 -86 16 -20 42 -62 56 -92 15 -29 34 -59
43 -66 9 -7 17 -24 18 -39 1 -15 15 -55 32 -90 17 -34 31 -68 31 -75 0 -6 6
-18 13 -25 18 -18 87 -164 94 -198 11 -58 18 -78 36 -97 24 -27 40 -29 57 -8
12 14 -7 81 -50 180 -10 22 -23 56 -29 75 -6 19 -28 62 -48 95 -36 58 -104
183 -185 335 -66 124 -68 128 -83 134 -12 4 -15 -4 -15 -43z"/>
<path d="M7142 7107 c-24 -11 -25 -25 -9 -122 2 -11 7 -48 11 -82 4 -34 14
-67 22 -74 8 -6 14 -7 14 -2 0 6 11 8 25 6 31 -6 40 22 40 132 l0 80 -30 5
c-23 4 -31 11 -33 30 -5 34 -13 40 -40 27z"/>
<path d="M9674 7094 c3 -7 1 -37 -3 -68 -10 -72 7 -142 43 -178 28 -28 34 -44
14 -32 -7 4 -5 -2 5 -13 11 -13 17 -36 17 -68 0 -42 2 -46 15 -35 9 7 29 14
45 14 25 1 30 -4 35 -26 3 -16 8 -41 11 -58 12 -61 21 -36 28 73 3 62 10 128
16 148 5 19 12 74 14 120 l3 85 -39 23 c-31 17 -56 22 -123 24 -61 1 -84 -1
-81 -9z"/>
<path d="M9081 6969 c-36 -73 -52 -116 -48 -130 3 -12 -3 -59 -13 -103 -11
-45 -20 -101 -20 -126 0 -25 -12 -75 -27 -113 -30 -76 -25 -100 19 -105 18 -2
32 5 47 24 18 23 20 35 14 100 l-6 74 41 37 c25 24 43 51 47 73 7 32 6 33 -9
21 -27 -22 -42 0 -26 38 6 16 9 34 6 40 -3 5 3 47 14 93 25 100 31 144 22 168
-5 13 -21 -11 -61 -91z"/>
<path d="M11811 7024 c-12 -15 -21 -32 -21 -40 0 -7 -12 -21 -27 -32 -26 -19
-27 -23 -24 -104 2 -79 0 -90 -38 -177 -23 -50 -41 -100 -41 -111 0 -19 53
-70 74 -70 46 0 95 86 96 167 0 28 7 85 15 125 23 109 27 234 9 253 -20 19
-19 20 -43 -11z"/>
<path d="M13513 6916 c3 -8 1 -17 -6 -20 -9 -5 -9 -7 0 -12 6 -3 24 -30 39
-61 17 -32 38 -59 51 -64 13 -5 23 -13 23 -19 0 -6 15 6 33 26 26 31 32 46 32
84 0 70 -13 80 -102 80 -61 0 -74 -3 -70 -14z"/>
<path d="M10519 6768 c-23 -46 -23 -49 -3 -400 5 -81 4 -111 -6 -123 -10 -13
-10 -18 3 -33 9 -9 15 -21 15 -27 -1 -5 20 -13 46 -17 69 -10 97 -40 110 -123
6 -34 3 -44 -13 -59 -11 -10 -23 -32 -26 -50 -9 -41 -51 -106 -70 -106 -8 0
-15 -5 -15 -11 0 -6 -7 -26 -16 -44 -20 -43 -8 -67 46 -95 85 -43 120 -19 118
83 -1 56 3 73 22 99 22 30 23 36 17 182 -3 83 -10 162 -15 175 -8 23 -9 21
-16 -18 -7 -47 -20 -47 -31 1 l-9 33 -3 -32 c-8 -66 -48 -20 -58 67 -4 30 -8
69 -11 85 -5 36 -13 164 -18 291 -4 87 -21 164 -38 164 -4 0 -17 -19 -29 -42z"/>
<path d="M15096 6629 c-32 -26 -33 -43 -1 -74 33 -34 87 -34 117 0 23 26 38
32 38 15 0 -16 39 -51 73 -65 36 -14 65 -12 108 11 24 12 30 21 27 42 -2 17
-8 26 -17 24 -12 -3 -12 0 -1 12 7 9 10 17 6 17 -3 1 -10 2 -15 3 -5 0 -13 5
-18 10 -5 5 -3 6 5 2 6 -4 12 -2 12 3 0 12 -11 14 -50 11 -27 -2 -42 -18 -33
-34 3 -5 1 -6 -6 -2 -6 4 -8 12 -5 18 4 6 -3 5 -16 -2 -20 -11 -36 -10 -132 2
-9 1 -15 5 -12 9 4 8 -20 19 -40 19 -8 0 -25 -9 -40 -21z"/>
<path d="M13040 6438 c0 -14 61 -249 75 -287 8 -24 13 -46 10 -49 -2 -2 2 -14
10 -26 19 -27 19 -93 0 -112 -13 -13 -12 -23 10 -81 14 -36 25 -67 25 -69 0
-2 9 -4 19 -4 48 0 67 70 35 131 -8 17 -18 53 -21 82 -3 29 -14 69 -24 89 -11
21 -19 44 -19 53 0 8 -9 32 -20 52 -11 21 -20 46 -20 55 0 28 -35 114 -59 144
-11 15 -21 24 -21 22z"/>
<path d="M9727 6272 c-15 -16 -30 -45 -34 -65 -3 -21 -10 -37 -16 -37 -5 0 -5
-6 2 -14 8 -10 9 -26 1 -60 -8 -39 -8 -50 5 -62 16 -17 20 -44 6 -44 -5 0 -16
10 -25 23 -12 16 -11 11 3 -18 11 -22 38 -58 60 -80 47 -45 48 -54 21 -127
-23 -63 -28 -141 -10 -163 18 -22 56 -18 74 7 9 13 16 43 16 69 0 45 19 98 47
131 11 13 12 21 3 37 -7 14 -9 51 -5 104 8 110 -1 141 -45 147 -37 5 -39 10
-63 123 l-12 58 -28 -29z"/>
<path d="M8092 6264 c-12 -8 -22 -24 -22 -35 0 -10 -5 -19 -11 -19 -6 0 -9 -7
-6 -15 4 -8 2 -17 -4 -21 -6 -3 7 -19 29 -35 34 -25 43 -27 73 -19 33 9 34 11
33 57 -2 94 -36 126 -92 87z"/>
<path d="M4799 5868 c-58 -60 -77 -108 -44 -108 7 0 18 -7 23 -16 8 -13 12
-12 38 9 42 36 87 122 80 153 -10 38 -33 29 -97 -38z"/>
<path d="M9059 5850 c-12 -34 -13 -53 -6 -65 11 -20 7 -24 -77 -82 -27 -19
-46 -40 -46 -52 0 -19 119 -131 139 -131 6 0 15 9 21 19 14 26 12 221 -3 298
l-12 61 -16 -48z"/>
<path d="M12280 5813 c0 -7 4 -14 10 -18 10 -6 7 -100 -4 -127 -5 -11 3 -28
27 -55 43 -47 55 -81 32 -89 -14 -6 -13 -10 8 -33 35 -37 94 -158 102 -210 4
-25 16 -58 26 -75 37 -60 69 -131 69 -154 0 -20 46 -80 55 -71 11 12 -32 169
-69 254 -24 55 -52 123 -61 150 -50 154 -78 230 -90 249 -7 12 -20 44 -29 71
-16 47 -76 133 -76 108z"/>
<path d="M9284 5493 c-4 -16 -11 -31 -17 -34 -5 -4 -10 -26 -12 -50 -2 -47
-14 -91 -65 -233 -25 -71 -30 -93 -22 -112 26 -55 95 20 113 122 6 32 15 79
20 104 11 54 9 230 -2 230 -5 0 -12 -12 -15 -27z"/>
<path d="M14830 5483 c-49 -18 -66 -75 -32 -106 11 -10 34 -16 53 -16 19 1 26
3 17 6 -10 2 -18 9 -18 13 0 6 10 6 25 0 20 -8 23 -7 18 8 -6 14 -4 15 9 4 13
-10 18 -10 24 -1 5 8 3 10 -7 5 -8 -4 -5 0 5 8 11 9 14 16 8 16 -7 0 -12 5
-12 11 0 5 5 7 10 4 22 -14 8 15 -16 34 -26 21 -54 25 -84 14z"/>
<path d="M13345 5446 c-16 -38 -10 -69 23 -128 12 -21 18 -38 13 -38 -18 0 74
-156 97 -165 18 -7 62 39 62 65 0 11 -15 51 -34 88 -18 37 -36 82 -39 100 -8
41 -64 112 -89 112 -12 0 -24 -12 -33 -34z"/>
<path d="M12236 5259 c-10 -50 -7 -136 6 -164 12 -27 23 -30 62 -15 22 8 26
16 26 47 0 38 -43 126 -73 151 -12 10 -15 7 -21 -19z"/>
<path d="M8314 5135 c-4 -11 -17 -47 -30 -80 -12 -33 -26 -78 -30 -100 -4 -22
-19 -58 -35 -80 -22 -33 -28 -53 -31 -112 -3 -55 0 -73 9 -73 8 0 17 11 22 23
5 13 33 44 62 69 l53 46 -18 34 c-18 34 -18 47 0 136 6 31 8 32 40 26 47 -9
59 20 19 49 -15 11 -33 34 -40 51 -12 28 -14 29 -21 11z"/>
<path d="M6430 4965 c-31 -33 -31 -82 -1 -105 l23 -17 -22 -44 c-12 -24 -33
-56 -47 -71 -14 -14 -22 -31 -19 -37 15 -23 44 -9 90 45 26 30 65 66 85 79 43
27 64 68 59 116 -3 31 -6 34 -33 32 -16 -1 -45 -5 -62 -9 -34 -6 -42 3 -21 24
9 9 7 12 -8 12 -11 0 -31 -11 -44 -25z"/>
<path d="M10030 4360 c-20 -49 -7 -160 27 -220 15 -27 31 -50 36 -50 4 0 7 50
7 111 0 96 -3 117 -22 150 -12 22 -25 39 -29 39 -3 0 -12 -14 -19 -30z"/>
<path d="M8879 4161 c-33 -45 -36 -56 -37 -119 -2 -72 -7 -103 -38 -206 -17
-57 -17 -59 1 -72 23 -17 50 -18 62 -1 14 16 59 222 72 326 10 79 4 121 -17
121 -4 0 -23 -22 -43 -49z"/>
<path d="M7228 4000 c-9 -6 -26 -27 -39 -48 -12 -20 -33 -54 -46 -74 -34 -50
-25 -82 20 -72 77 16 93 37 113 148 5 28 3 41 -7 47 -17 11 -20 11 -41 -1z"/>
</g>
</svg>
